<?xml version="1.0" encoding="UTF-8" standalone="no"?>
<!DOCTYPE svg PUBLIC "-//W3C//DTD SVG 1.1//EN" "http://www.w3.org/Graphics/SVG/1.1/DTD/svg11.dtd">
<svg xmlns="http://www.w3.org/2000/svg" version="1.1" viewBox="0 0 716 107">
<g stroke-width="2.00" fill="none" stroke-linecap="butt">
<path stroke="#8bc6e9" vector-effect="non-scaling-stroke" d="
  M 51.25 18.54
  Q 75.33 24.02 81.96 47.75"
/>
<path stroke="#83d0f1" vector-effect="non-scaling-stroke" d="
  M 81.96 47.75
  L 82.74 54.76
  A 0.64 0.58 85.7 0 0 83.33 55.32
  L 92.94 55.19
  A 0.48 0.48 88.9 0 0 93.42 54.69
  Q 92.52 33.81 77.44 20.06
  Q 64.16 7.96 45.74 7.51
  A 0.64 0.64 8.1 0 0 45.11 7.98
  L 42.49 17.74
  A 0.42 0.41 8.2 0 0 42.89 18.25
  L 51.25 18.54"
/>
<path stroke="#0f97da" vector-effect="non-scaling-stroke" d="
  M 81.96 47.75
  Q 84.66 48.14 86.43 50.11
  A 0.95 0.69 58.3 0 0 87.25 50.45
  Q 87.94 50.28 87.75 49.50
  Q 80.12 18.88 48.68 12.13
  A 1.18 1.17 0.7 0 0 47.27 13.50
  Q 47.86 16.57 51.18 16.79
  A 1.80 1.12 -13.1 0 1 52.09 17.10
  Q 53.59 18.29 51.25 18.54"
/>
<path stroke="#95a3cb" vector-effect="non-scaling-stroke" d="
  M 80.85 16.97
  Q 96.71 32.91 97.79 54.69
  A 0.60 0.59 -88.3 0 0 98.31 55.25
  Q 102.92 55.85 107.54 55.32
  A 0.48 0.47 85.5 0 0 107.96 54.82
  Q 106.64 28.14 88.11 10.10
  A 0.54 0.52 45.8 0 0 87.37 10.08
  L 80.85 16.28
  A 0.49 0.47 46.2 0 0 80.85 16.97"
/>
<path stroke="#afafaf" vector-effect="non-scaling-stroke" d="
  M 219.31 19.00
  Q 222.31 18.62 225.34 18.73
  Q 225.80 18.75 226.13 18.62
  Q 227.14 18.20 226.38 17.70
  Q 226.08 17.50 225.57 17.47
  Q 217.51 16.90 209.44 17.17
  A 1.16 0.76 9.4 0 0 208.60 17.54
  Q 208.27 18.00 208.54 18.53
  A 0.95 0.69 -7.7 0 0 209.31 18.94
  L 215.56 19.15
  A 0.63 0.61 86.5 0 1 216.14 19.68
  Q 216.61 22.81 216.50 24.50
  Q 216.07 31.22 216.30 37.95
  A 1.14 0.92 -75.7 0 0 216.68 38.78
  Q 217.42 39.35 218.13 38.83
  A 1.11 0.76 79.4 0 0 218.49 38.01
  L 218.78 19.56
  A 0.60 0.57 -2.9 0 1 219.31 19.00"
/>
<path stroke="#afafaf" vector-effect="non-scaling-stroke" d="
  M 232.80 28.80
  L 244.72 28.75
  A 1.32 1.30 -89.1 0 1 246.02 30.11
  Q 245.91 34.25 245.79 37.50
  Q 245.72 39.26 247.74 38.97
  A 0.60 0.60 -4.5 0 0 248.25 38.38
  L 248.19 17.81
  A 0.67 0.63 -83.3 0 0 247.71 17.17
  Q 245.44 16.63 246.00 19.50
  Q 246.42 21.63 245.76 26.19
  A 0.59 0.58 -86.5 0 1 245.20 26.70
  L 233.02 26.74
  A 0.81 0.76 88.9 0 1 232.25 25.95
  L 232.10 17.69
  A 0.57 0.51 88.0 0 0 231.56 17.13
  L 230.54 17.20
  A 0.62 0.50 88.5 0 0 230.07 17.81
  L 230.01 37.99
  A 1.07 0.80 -77.8 0 0 230.39 38.82
  Q 231.04 39.22 231.75 38.93
  A 0.83 0.70 80.8 0 0 232.19 38.19
  L 232.31 29.31
  A 0.51 0.50 89.4 0 1 232.80 28.80"
/>
<path stroke="#aaaaaa" vector-effect="non-scaling-stroke" d="
  M 257.80 26.19
  L 257.75 19.52
  A 0.51 0.51 0.6 0 1 258.27 19.01
  L 269.59 19.06
  A 0.65 0.64 7.2 0 0 270.23 18.57
  Q 270.68 16.80 269.35 16.94
  Q 268.75 17.00 268.62 17.00
  Q 262.79 17.00 256.37 17.00
  A 0.87 0.87 1.3 0 0 255.50 17.87
  L 255.50 37.95
  A 0.78 0.78 1.5 0 0 256.24 38.73
  Q 262.55 39.11 267.72 39.02
  Q 267.83 39.01 269.26 39.09
  Q 271.34 39.20 270.64 37.28
  A 0.75 0.69 -9.9 0 0 269.94 36.83
  L 258.24 37.00
  A 0.55 0.54 89.5 0 1 257.69 36.45
  L 257.69 29.44
  A 0.54 0.53 87.7 0 1 258.18 28.90
  Q 265.53 28.41 267.25 28.75
  Q 269.49 29.19 269.07 27.29
  A 0.65 0.60 -5.4 0 0 268.44 26.81
  L 258.31 26.69
  A 0.51 0.50 0.0 0 1 257.80 26.19"
/>
<path stroke="#a7a7a7" vector-effect="non-scaling-stroke" d="
  M 285.84 24.49
  Q 285.01 22.68 285.76 21.16
  Q 286.45 19.79 288.43 19.23
  Q 292.50 18.07 296.38 20.19
  A 0.75 0.66 37.1 0 0 297.20 20.13
  Q 298.37 19.06 296.75 18.25
  Q 292.04 15.89 287.21 17.69
  Q 284.98 18.53 283.94 20.13
  Q 282.55 22.25 283.50 24.59
  Q 284.27 26.48 286.69 27.68
  Q 288.97 28.80 291.06 29.19
  Q 293.23 29.59 294.79 30.63
  Q 296.51 31.78 296.45 33.61
  Q 296.37 35.90 293.75 36.75
  Q 289.39 38.16 285.15 35.74
  Q 285.10 35.71 284.39 35.21
  Q 283.08 34.31 282.81 36.00
  A 0.81 0.77 22.2 0 0 283.16 36.78
  Q 288.26 40.09 294.00 38.50
  Q 299.28 37.03 298.47 32.28
  Q 298.12 30.20 296.37 29.01
  Q 294.67 27.85 292.57 27.43
  Q 289.34 26.77 286.49 25.18
  A 1.58 1.43 4.7 0 1 285.84 24.49"
/>
<path stroke="#a4a4a4" vector-effect="non-scaling-stroke" d="
  M 321.29 31.31
  Q 321.68 24.56 321.45 17.80
  A 0.76 0.72 -81.1 0 0 320.98 17.11
  Q 319.32 16.50 319.50 18.75
  Q 319.78 22.26 319.37 29.88
  Q 319.22 32.67 318.49 33.98
  Q 317.34 36.04 315.00 36.75
  Q 311.15 37.91 308.54 35.80
  Q 306.79 34.38 306.30 31.06
  Q 305.36 24.58 305.72 18.01
  A 0.79 0.70 -77.4 0 0 305.31 17.27
  Q 303.48 16.42 303.62 18.56
  Q 303.72 20.00 303.69 20.44
  Q 303.42 25.67 304.04 30.83
  Q 304.49 34.67 306.36 36.60
  Q 310.05 40.42 316.26 38.17
  Q 321.00 36.46 321.29 31.31"
/>
<path stroke="#a4a4a4" vector-effect="non-scaling-stroke" d="
  M 331.31 22.03
  L 339.26 35.76
  A 0.75 0.74 -45.1 0 0 340.55 35.75
  L 348.63 21.95
  Q 349.25 20.88 349.24 22.11
  L 349.08 37.95
  A 0.87 0.77 -77.6 0 0 349.49 38.69
  Q 351.47 39.73 351.33 37.48
  Q 351.25 36.11 351.25 36.01
  Q 351.29 26.91 351.19 17.80
  A 0.71 0.63 -83.1 0 0 350.73 17.13
  Q 349.53 16.78 348.80 18.06
  Q 344.61 25.37 340.27 32.98
  Q 339.90 33.63 339.53 32.97
  Q 335.25 25.43 330.95 18.10
  Q 330.49 17.31 329.90 17.07
  Q 328.52 16.50 328.52 18.50
  Q 328.50 28.25 328.50 37.99
  A 0.98 0.84 -76.7 0 0 328.91 38.79
  Q 329.90 39.39 330.39 38.74
  Q 330.69 38.33 330.66 37.32
  Q 330.40 29.79 330.50 22.23
  Q 330.52 20.67 331.31 22.03"
/>
<path stroke="#a7a7a7" vector-effect="non-scaling-stroke" d="
  M 379.15 22.61
  Q 378.88 29.53 378.97 37.25
  Q 378.99 39.47 380.73 38.87
  A 0.72 0.66 81.6 0 0 381.19 38.20
  L 381.25 17.81
  A 0.89 0.89 -11.4 0 0 380.01 16.99
  Q 378.91 17.46 378.43 18.49
  Q 378.03 19.37 377.98 19.47
  Q 374.01 26.24 370.27 32.70
  A 0.53 0.52 44.8 0 1 369.36 32.70
  L 360.69 17.74
  A 1.34 1.17 80.9 0 0 359.97 17.14
  Q 358.32 16.65 358.43 18.45
  Q 358.50 19.48 358.50 19.55
  Q 358.50 28.40 358.37 37.25
  Q 358.33 39.94 360.28 38.72
  A 0.98 0.79 77.1 0 0 360.66 37.94
  L 360.75 22.49
  Q 360.76 21.17 361.43 22.34
  L 369.01 35.52
  A 0.98 0.97 -45.0 0 0 370.69 35.51
  L 378.41 22.39
  Q 379.22 21.02 379.15 22.61"
/>
<path stroke="#a7a7a7" vector-effect="non-scaling-stroke" d="
  M 391.07 28.80
  Q 398.32 28.64 400.25 28.75
  Q 402.40 28.87 401.87 27.27
  A 0.73 0.67 -8.2 0 0 401.19 26.80
  L 391.06 26.83
  A 0.56 0.54 -0.0 0 1 390.50 26.29
  L 390.50 19.66
  A 0.66 0.66 0.4 0 1 391.16 19.00
  Q 395.95 19.00 400.66 19.00
  Q 400.75 19.00 401.83 19.07
  Q 403.77 19.19 403.14 17.52
  A 0.79 0.71 -8.5 0 0 402.43 17.05
  L 389.23 17.00
  A 0.93 0.92 90.0 0 0 388.31 17.93
  L 388.51 38.26
  A 0.51 0.51 88.8 0 0 389.03 38.76
  Q 395.76 38.65 401.73 39.18
  Q 404.22 39.41 403.55 37.41
  A 0.57 0.56 80.3 0 0 403.00 37.01
  L 391.02 37.07
  A 0.52 0.50 -0.0 0 1 390.50 36.57
  L 390.55 29.31
  A 0.53 0.51 -0.6 0 1 391.07 28.80"
/>
<path stroke="#a7a7a7" vector-effect="non-scaling-stroke" d="
  M 421.78 31.12
  Q 425.07 29.70 425.94 26.60
  Q 426.76 23.70 425.24 21.06
  Q 423.13 17.42 417.75 17.25
  Q 411.82 17.06 409.93 17.15
  A 0.54 0.54 -1.7 0 0 409.42 17.69
  L 409.30 38.20
  A 0.74 0.73 -79.7 0 0 409.77 38.89
  Q 411.93 39.71 411.50 37.00
  Q 411.39 36.28 411.54 32.57
  A 0.53 0.53 0.2 0 1 412.05 32.06
  L 418.44 31.84
  A 1.01 0.93 -17.9 0 1 419.24 32.21
  Q 421.48 35.19 423.69 38.18
  Q 424.15 38.80 424.64 38.97
  Q 425.46 39.25 425.97 38.67
  A 0.73 0.55 49.9 0 0 425.93 37.87
  L 421.57 31.74
  A 0.44 0.40 -29.2 0 1 421.78 31.12"
/>
<path stroke="#afafaf" vector-effect="non-scaling-stroke" d="
  M 460.34 27.92
  Q 460.60 19.83 452.58 17.63
  Q 450.44 17.04 446.73 17.01
  Q 444.06 16.98 440.82 17.02
  A 0.83 0.83 -0.3 0 0 440.00 17.85
  L 440.00 38.30
  A 0.51 0.51 1.2 0 0 440.49 38.81
  Q 445.34 39.08 450.25 38.75
  Q 455.13 38.42 457.84 35.21
  Q 460.19 32.43 460.34 27.92"
/>
<path stroke="#afafaf" vector-effect="non-scaling-stroke" d="
  M 468.04 36.01
  L 468.18 29.78
  A 1.06 0.97 -89.1 0 1 469.15 28.75
  Q 474.13 28.75 478.00 28.80
  Q 480.28 28.82 479.28 27.16
  A 0.97 0.84 -13.6 0 0 478.49 26.75
  L 468.80 26.75
  A 0.82 0.82 -84.2 0 1 468.00 25.77
  Q 468.54 23.00 467.99 20.17
  A 0.76 0.75 -8.1 0 1 468.67 19.27
  Q 473.46 18.91 477.99 18.98
  Q 478.14 18.99 479.49 19.22
  Q 480.86 19.46 480.70 17.76
  A 0.84 0.83 87.4 0 0 479.87 17.00
  L 466.60 17.00
  A 0.85 0.85 0.2 0 0 465.75 17.85
  L 465.75 38.13
  A 0.87 0.86 89.7 0 0 466.62 39.00
  L 480.18 38.94
  A 1.20 0.95 15.7 0 0 481.04 38.58
  Q 481.70 37.79 481.04 37.19
  Q 480.61 36.80 479.73 36.85
  Q 474.28 37.17 468.79 36.94
  A 0.92 0.78 -88.3 0 1 468.04 36.01"
/>
<path stroke="#aaaaaa" vector-effect="non-scaling-stroke" d="
  M 492.94 17.94
  Q 488.60 27.26 484.50 36.68
  Q 484.36 37.01 483.91 37.77
  Q 482.89 39.51 485.21 38.84
  A 1.24 1.03 -81.2 0 0 485.90 38.23
  L 488.20 33.63
  A 0.83 0.82 -76.6 0 1 488.94 33.17
  L 500.18 33.29
  A 0.82 0.76 76.7 0 1 500.89 33.77
  L 502.85 37.98
  A 1.35 1.27 87.4 0 0 503.53 38.64
  Q 506.11 39.72 505.04 37.67
  Q 504.45 36.54 504.40 36.42
  Q 500.31 27.36 496.19 18.31
  Q 494.49 14.60 492.94 17.94"
/>
<path stroke="#a7a7a7" vector-effect="non-scaling-stroke" d="
  M 512.06 29.55
  L 521.75 29.50
  A 1.24 0.77 10.5 0 0 522.62 29.16
  Q 522.95 28.73 522.75 28.19
  A 0.87 0.68 -7.6 0 0 522.00 27.75
  L 512.03 27.69
  A 0.54 0.53 90.0 0 1 511.50 27.15
  L 511.50 19.50
  A 0.50 0.50 0.0 0 1 512.00 19.00
  L 523.01 19.00
  A 1.48 1.03 16.8 0 0 523.90 18.71
  Q 524.63 18.09 524.05 17.53
  Q 523.70 17.19 522.96 17.18
  Q 516.48 17.08 510.00 17.24
  A 0.53 0.52 0.6 0 0 509.48 17.74
  Q 509.08 26.87 509.24 36.01
  Q 509.24 36.12 509.16 37.49
  Q 509.04 39.60 510.97 38.89
  A 0.77 0.75 80.5 0 0 511.45 38.19
  L 511.55 30.07
  A 0.53 0.52 -90.0 0 1 512.06 29.55"
/>
<path stroke="#a4a4a4" vector-effect="non-scaling-stroke" d="
  M 536.31 23.41
  Q 535.00 26.18 535.51 29.50
  Q 536.51 36.06 542.78 38.16
  Q 548.01 39.91 553.40 37.21
  A 2.46 2.36 -14.3 0 0 554.75 35.04
  L 554.70 29.06
  A 1.04 0.96 -73.5 0 0 554.30 28.24
  Q 553.15 27.40 552.69 28.51
  Q 552.48 29.02 552.65 29.99
  Q 553.10 32.65 552.34 35.21
  A 1.06 1.02 -3.4 0 1 551.72 35.88
  Q 543.16 39.28 539.16 33.04
  Q 536.81 29.39 537.76 25.60
  Q 538.84 21.28 543.72 19.52
  Q 547.94 18.01 552.69 20.81
  Q 554.94 22.14 554.33 19.79
  A 1.27 1.19 8.7 0 0 553.75 19.05
  Q 546.45 14.77 540.22 19.04
  Q 537.48 20.93 536.31 23.41"
/>
<path stroke="#a7a7a7" vector-effect="non-scaling-stroke" d="
  M 567.44 18.42
  L 558.43 38.01
  A 0.63 0.63 23.5 0 0 558.77 38.86
  Q 560.49 39.54 561.07 37.52
  Q 561.49 36.05 562.57 33.93
  A 1.72 1.69 -76.1 0 1 564.08 33.00
  L 574.45 33.05
  A 0.92 0.91 -16.3 0 1 575.22 33.47
  Q 576.12 34.88 577.25 37.75
  Q 577.95 39.53 579.56 38.75
  A 0.55 0.52 64.9 0 0 579.79 38.04
  L 570.86 18.45
  Q 569.16 14.71 567.44 18.42"
/>
<path stroke="#a4a4a4" vector-effect="non-scaling-stroke" d="
  M 587.05 22.92
  L 594.60 35.82
  A 0.69 0.67 -45.1 0 0 595.77 35.80
  L 603.99 21.92
  Q 604.25 21.48 604.27 22.00
  Q 604.63 29.25 604.51 36.51
  Q 604.51 36.59 604.35 37.97
  Q 604.15 39.59 605.98 38.88
  A 0.75 0.69 80.1 0 0 606.43 38.18
  Q 606.21 22.91 606.50 19.75
  Q 606.86 15.83 604.80 17.40
  Q 604.16 17.89 603.57 18.92
  Q 599.74 25.61 595.44 33.05
  A 0.30 0.30 -45.1 0 1 594.92 33.05
  Q 590.29 25.05 585.91 17.69
  Q 585.64 17.23 585.30 17.08
  Q 584.77 16.84 584.34 17.14
  A 1.21 0.72 81.6 0 0 583.98 18.01
  Q 583.59 27.00 583.74 36.00
  Q 583.74 36.12 583.66 37.49
  Q 583.54 39.60 585.47 38.89
  A 0.75 0.74 79.9 0 0 585.95 38.19
  L 585.89 23.24
  Q 585.88 20.93 587.05 22.92"
/>
<path stroke="#aaaaaa" vector-effect="non-scaling-stroke" d="
  M 616.03 26.20
  L 616.14 19.68
  A 0.59 0.54 -1.8 0 1 616.69 19.15
  Q 621.92 18.76 627.16 19.14
  Q 627.95 19.20 628.37 18.87
  Q 629.12 18.28 628.55 17.39
  A 1.01 0.78 -12.5 0 0 627.76 17.02
  L 614.71 17.02
  A 0.94 0.89 -0.3 0 0 613.77 17.92
  L 613.92 38.31
  A 0.52 0.52 0.0 0 0 614.44 38.83
  L 628.20 38.95
  A 1.02 1.00 18.0 0 0 629.01 38.55
  Q 630.02 37.19 628.06 37.16
  Q 622.41 37.04 616.73 37.00
  A 0.74 0.74 0.4 0 1 616.00 36.26
  L 616.00 29.25
  A 0.50 0.50 0.0 0 1 616.50 28.75
  Q 621.25 28.75 626.00 28.82
  Q 628.23 28.85 627.27 27.17
  A 0.93 0.84 -13.0 0 0 626.51 26.75
  L 616.56 26.70
  A 0.54 0.49 1.1 0 1 616.03 26.20"
/>
<path stroke="#a7a7a7" vector-effect="non-scaling-stroke" d="
  M 633.61 20.62
  Q 632.66 22.91 633.57 24.90
  Q 634.29 26.50 636.44 27.56
  Q 638.28 28.46 640.32 28.89
  Q 642.48 29.35 644.39 30.37
  Q 646.25 31.36 646.51 33.03
  Q 646.87 35.39 644.25 36.50
  Q 639.88 38.36 635.26 35.80
  Q 635.23 35.78 634.31 35.10
  Q 633.23 34.31 632.79 35.87
  A 0.75 0.75 23.9 0 0 633.12 36.72
  Q 638.56 40.00 643.85 38.56
  Q 646.47 37.84 647.82 35.80
  Q 649.73 32.91 647.65 30.33
  Q 646.44 28.84 643.16 27.72
  Q 640.65 26.86 638.16 25.94
  Q 636.54 25.34 635.93 24.34
  Q 634.99 22.82 635.70 21.31
  Q 636.43 19.76 638.56 19.14
  Q 642.22 18.07 645.74 19.96
  Q 646.44 20.34 646.83 20.34
  Q 647.82 20.35 647.56 19.04
  A 1.06 0.94 8.3 0 0 646.98 18.35
  Q 642.29 16.26 637.24 17.50
  Q 634.64 18.14 633.61 20.62"
/>
<path stroke="#a2d39a" vector-effect="non-scaling-stroke" d="
  M 36.75 34.29
  Q 53.54 30.77 63.75 44.04"
/>
<path stroke="#aed89b" vector-effect="non-scaling-stroke" d="
  M 63.75 44.04
  Q 66.62 48.54 67.95 54.68
  A 0.73 0.71 83.4 0 0 68.65 55.25
  L 77.51 55.25
  A 0.52 0.52 -4.7 0 0 78.02 54.65
  Q 75.53 38.79 63.93 30.36
  Q 55.65 24.34 45.40 23.63
  Q 31.55 22.68 19.86 32.48
  A 0.93 0.88 -41.3 0 0 19.74 33.79
  L 25.64 40.15
  A 0.52 0.49 -43.4 0 0 26.36 40.15
  Q 30.81 35.95 36.75 34.29"
/>
<path stroke="#50ac36" vector-effect="non-scaling-stroke" d="
  M 63.75 44.04
  L 65.97 43.22
  A 1.42 1.19 41.9 0 1 66.90 43.25
  Q 69.99 44.41 69.18 42.24
  Q 68.94 41.58 68.28 40.74
  Q 62.13 32.88 53.31 29.69
  Q 43.54 26.16 33.31 29.79
  Q 32.89 29.94 32.16 30.06
  Q 30.56 30.31 31.64 31.42
  A 1.66 0.92 -4.3 0 0 32.49 31.81
  Q 34.19 32.10 34.31 33.69
  A 0.58 0.52 88.6 0 0 34.81 34.22
  L 36.75 34.29"
/>
<path stroke="#abd69b" vector-effect="non-scaling-stroke" d="
  M 29.02 46.76
  Q 26.14 49.89 25.14 54.93
  A 0.48 0.48 -84.5 0 0 25.61 55.50
  L 33.74 55.50
  A 0.67 0.65 -77.0 0 0 34.33 55.12
  Q 36.73 49.91 41.46 48.94
  Q 44.84 48.24 47.81 49.97
  Q 50.67 51.64 52.43 55.03
  A 0.84 0.81 75.4 0 0 53.18 55.49
  L 61.19 55.45
  A 0.41 0.41 83.8 0 0 61.59 54.95
  Q 60.65 50.42 57.93 46.92
  Q 55.42 43.68 51.19 41.67
  Q 39.02 35.89 29.02 46.76"
/>
<path stroke="#abd69b" vector-effect="non-scaling-stroke" d="
  M 561.7357 59.7956
  A 0.27 0.27 0.0 0 0 561.4662 59.5251
  L 555.6662 59.5150
  A 0.27 0.27 0.0 0 0 555.3957 59.7845
  L 555.3443 89.2244
  A 0.27 0.27 0.0 0 0 555.6138 89.4949
  L 561.4138 89.5050
  A 0.27 0.27 0.0 0 0 561.6843 89.2355
  L 561.7357 59.7956"
/>
<path stroke="#f09292" vector-effect="non-scaling-stroke" d="
  M 36.68 81.06
  Q 22.63 76.58 19.17 61.18
  A 0.69 0.68 85.9 0 0 18.56 60.64
  Q 14.05 60.18 9.55 60.75
  A 0.50 0.49 82.5 0 0 9.13 61.31
  Q 10.59 71.57 16.61 79.14
  Q 22.65 86.74 31.66 89.96
  Q 42.45 93.82 55.12 90.36
  A 1.14 1.13 -6.8 0 0 55.97 89.29
  L 56.18 79.83
  A 0.59 0.58 -13.4 0 0 55.32 79.31
  Q 50.89 81.62 46.07 82.12
  Q 41.52 82.60 36.68 81.06"
/>
<path stroke="#f9c58a" vector-effect="non-scaling-stroke" d="
  M 50.71 63.50
  Q 41.89 71.83 34.75 62.21"
/>
<path stroke="#f5ad8e" vector-effect="non-scaling-stroke" d="
  M 34.75 62.21
  Q 34.50 60.28 32.73 60.39
  Q 31.39 60.47 31.27 60.46
  Q 28.27 60.33 25.31 60.74
  A 0.45 0.44 -11.5 0 0 24.94 61.29
  Q 27.64 71.25 35.88 74.73
  Q 43.62 78.01 51.06 74.52
  Q 58.66 70.96 61.60 61.42
  A 0.70 0.70 -81.7 0 0 60.93 60.51
  L 53.06 60.55
  A 0.98 0.76 -69.6 0 0 52.34 61.00
  L 50.71 63.50"
/>
<path stroke="#ee7319" vector-effect="non-scaling-stroke" d="
  M 34.75 62.21
  Q 33.53 63.34 32.11 62.80
  Q 31.06 62.41 30.83 62.38
  Q 29.11 62.19 29.81 63.69
  Q 31.95 68.23 36.33 70.33
  Q 40.32 72.24 45.02 71.76
  Q 52.16 71.04 56.44 64.59
  Q 56.97 63.80 56.01 63.75
  L 50.71 63.50"
/>
<path stroke="#95a3cb" vector-effect="non-scaling-stroke" d="
  M 267.5200 72.0921
  A 12.64 11.75 0.1 0 0 254.9005 60.3200
  A 12.64 11.75 0.1 0 0 242.2400 72.0479
  A 12.64 11.75 0.1 0 0 254.8595 83.8200
  A 12.64 11.75 0.1 0 0 267.5200 72.0921"
/>
<path stroke="#95a3cb" vector-effect="non-scaling-stroke" d="
  M 284.70 77.29
  Q 277.69 78.64 277.29 72.45
  Q 277.15 70.26 277.98 68.80
  Q 279.03 66.92 281.25 66.50
  Q 284.54 65.88 287.21 68.35
  A 0.61 0.55 45.6 0 0 287.98 68.40
  L 291.74 65.14
  A 0.82 0.78 42.8 0 0 291.66 63.90
  Q 285.73 59.36 279.01 60.81
  Q 274.08 61.88 271.57 65.54
  Q 269.21 68.97 269.67 73.48
  Q 270.14 78.14 273.76 80.98
  Q 276.84 83.40 281.24 83.66
  Q 286.50 83.97 291.27 81.19
  A 0.87 0.86 75.0 0 0 291.70 80.44
  L 291.75 72.38
  A 0.82 0.78 89.7 0 0 290.96 71.56
  L 285.93 71.62
  A 0.58 0.55 -89.4 0 0 285.39 72.18
  L 285.18 76.70
  A 0.63 0.59 86.1 0 1 284.70 77.29"
/>
<path stroke="#95a3cb" vector-effect="non-scaling-stroke" d="
  M 428.94 63.94
  Q 426.05 67.86 428.45 71.11
  Q 429.82 72.97 433.06 74.02
  Q 435.20 74.70 438.44 75.56
  Q 440.49 76.10 439.55 77.23
  Q 439.11 77.76 438.26 77.86
  Q 434.48 78.31 430.69 76.51
  A 1.01 1.00 29.9 0 0 429.44 76.84
  Q 427.73 79.32 427.58 81.19
  A 0.75 0.71 15.5 0 0 428.01 81.90
  Q 431.83 83.69 435.97 83.68
  Q 439.17 83.66 441.03 83.26
  Q 443.78 82.65 445.56 80.56
  Q 447.64 78.12 447.08 75.23
  Q 446.58 72.66 444.22 71.14
  Q 441.95 69.67 438.83 69.47
  Q 437.18 69.37 435.79 68.46
  Q 434.16 67.41 435.58 66.57
  Q 436.14 66.24 437.00 66.19
  Q 440.33 66.02 443.36 67.46
  A 0.58 0.45 24.1 0 0 444.09 67.28
  L 445.91 62.73
  A 0.60 0.50 22.6 0 0 445.55 62.05
  Q 441.13 60.12 436.24 60.36
  Q 431.39 60.60 428.94 63.94"
/>
<path stroke="#95a3cb" vector-effect="non-scaling-stroke" d="
  M 497.6900 72.0480
  A 12.62 11.75 -0.1 0 0 485.0495 60.3200
  A 12.62 11.75 -0.1 0 0 472.4500 72.0920
  A 12.62 11.75 -0.1 0 0 485.0905 83.8200
  A 12.62 11.75 -0.1 0 0 497.6900 72.0480"
/>
<path stroke="#abd69b" vector-effect="non-scaling-stroke" d="
  M 585.40 77.06
  Q 586.92 75.36 588.49 73.70
  Q 590.47 71.61 591.08 70.02
  Q 592.55 66.20 590.11 63.42
  Q 588.25 61.30 584.84 60.62
  Q 578.33 59.31 573.53 64.60
  A 0.85 0.83 34.9 0 0 573.78 65.90
  L 577.95 68.07
  A 1.02 0.98 29.0 0 0 579.27 67.72
  Q 580.16 66.21 582.64 66.60
  A 1.63 1.63 12.6 0 1 583.95 68.66
  Q 583.51 70.23 582.17 71.43
  Q 578.48 74.75 574.87 78.15
  A 1.40 0.83 -30.6 0 0 574.41 78.99
  L 574.26 82.69
  A 0.56 0.49 1.0 0 0 574.82 83.20
  L 591.68 83.20
  A 0.53 0.52 0.0 0 0 592.21 82.68
  L 592.23 78.13
  A 0.65 0.63 0.0 0 0 591.58 77.50
  L 585.57 77.46
  Q 585.05 77.45 585.40 77.06"
/>
<path stroke="#abd69b" vector-effect="non-scaling-stroke" d="
  M 603.7988 83.8399
  A 11.79 10.23 90.2 0 0 614.0699 72.0857
  A 11.79 10.23 90.2 0 0 603.8812 60.2601
  A 11.79 10.23 90.2 0 0 593.6101 72.0143
  A 11.79 10.23 90.2 0 0 603.7988 83.8399"
/>
<path stroke="#abd69b" vector-effect="non-scaling-stroke" d="
  M 627.31 77.43
  Q 626.29 77.40 627.06 76.75
  Q 629.79 74.41 631.53 72.07
  Q 634.30 68.32 632.81 64.95
  Q 631.59 62.19 627.96 60.99
  Q 621.02 58.69 615.45 64.43
  A 1.00 0.97 35.4 0 0 615.74 65.99
  L 619.66 68.05
  A 0.97 0.91 31.2 0 0 620.86 67.79
  Q 621.97 66.26 624.30 66.57
  Q 626.35 66.85 625.65 68.79
  Q 624.99 70.59 623.31 72.07
  Q 619.92 75.06 616.62 78.16
  A 1.36 0.83 -29.9 0 0 616.16 78.99
  L 616.01 82.69
  A 0.55 0.48 1.0 0 0 616.56 83.19
  L 633.13 83.25
  A 0.69 0.68 -0.0 0 0 633.82 82.57
  L 633.82 78.19
  A 0.54 0.52 -88.9 0 0 633.32 77.65
  L 627.31 77.43"
/>
<path stroke="#95a3cb" vector-effect="non-scaling-stroke" d="
  M 95.61 72.29
  L 92.35 61.29
  A 0.70 0.69 -7.2 0 0 91.69 60.79
  L 86.24 60.75
  A 1.33 1.23 -80.1 0 0 85.03 61.67
  L 81.81 71.80
  Q 81.15 73.88 80.51 71.75
  L 77.35 61.31
  A 0.74 0.70 81.1 0 0 76.67 60.79
  L 70.19 60.89
  A 0.40 0.38 81.1 0 0 69.83 61.41
  L 76.53 82.59
  A 0.75 0.67 80.7 0 0 77.19 83.12
  L 84.32 83.12
  A 0.77 0.66 -80.0 0 0 84.98 82.58
  L 88.00 72.73
  Q 88.58 70.85 89.14 72.73
  L 92.00 82.28
  A 1.35 1.35 81.6 0 0 93.29 83.24
  L 99.94 83.20
  A 0.70 0.68 -80.5 0 0 100.59 82.72
  L 107.36 61.39
  A 0.46 0.44 -80.7 0 0 106.95 60.80
  L 101.01 60.75
  A 0.70 0.70 -81.6 0 0 100.34 61.25
  L 96.81 72.33
  Q 96.19 74.27 95.61 72.29"
/>
<path stroke="#95a3cb" vector-effect="non-scaling-stroke" d="
  M 117.82 66.55
  L 127.24 66.50
  A 0.73 0.72 -6.9 0 0 127.95 65.61
  Q 127.47 63.62 127.95 61.64
  A 0.72 0.72 6.9 0 0 127.25 60.75
  L 110.31 60.75
  A 0.56 0.56 0.0 0 0 109.75 61.31
  L 109.75 82.71
  A 0.53 0.52 90.0 0 0 110.27 83.24
  L 127.80 83.08
  A 0.56 0.51 -0.5 0 0 128.36 82.56
  L 128.26 78.30
  A 0.59 0.54 0.6 0 0 127.69 77.77
  L 117.82 77.43
  A 0.81 0.68 -7.2 0 1 117.12 76.98
  Q 116.15 74.40 119.00 74.45
  Q 122.37 74.50 125.97 74.50
  A 0.58 0.55 -89.5 0 0 126.52 73.93
  L 126.60 69.76
  A 0.50 0.48 -89.4 0 0 126.12 69.25
  L 118.25 69.25
  A 1.26 0.93 -15.4 0 1 117.39 68.92
  Q 116.64 68.09 117.09 67.00
  A 0.84 0.71 8.8 0 1 117.82 66.55"
/>
<path stroke="#95a3cb" vector-effect="non-scaling-stroke" d="
  M 156.42 80.01
  L 157.63 82.72
  A 0.82 0.71 75.9 0 0 158.31 83.20
  L 164.87 83.24
  A 0.35 0.35 78.5 0 0 165.19 82.75
  L 155.90 61.52
  A 0.93 0.70 75.4 0 0 155.20 60.96
  L 149.52 60.90
  A 2.35 1.91 -75.4 0 0 147.60 62.31
  L 138.64 82.78
  A 0.34 0.34 -78.5 0 0 138.95 83.25
  L 145.43 83.25
  A 1.28 1.28 -87.0 0 0 146.70 82.10
  Q 146.82 80.94 147.50 79.96
  A 0.99 0.97 17.3 0 1 148.30 79.55
  L 155.69 79.54
  A 0.80 0.79 -11.9 0 1 156.42 80.01"
/>
<path stroke="#95a3cb" vector-effect="non-scaling-stroke" d="
  M 184.15 76.20
  Q 188.20 73.08 187.69 68.53
  Q 187.33 65.27 185.01 63.19
  Q 182.63 61.04 179.01 60.86
  Q 174.13 60.60 167.80 60.79
  A 0.80 0.78 -1.5 0 0 167.03 61.58
  L 167.05 82.45
  A 0.58 0.51 -90.0 0 0 167.56 83.03
  L 173.66 83.12
  A 0.65 0.59 -89.6 0 0 174.26 82.47
  Q 174.21 74.30 177.91 79.83
  Q 178.92 81.34 180.01 82.79
  A 1.04 1.00 70.9 0 0 180.82 83.20
  L 187.52 83.25
  Q 188.34 83.26 187.87 82.56
  L 184.03 76.92
  A 0.54 0.53 -36.1 0 1 184.15 76.20"
/>
<path stroke="#95a3cb" vector-effect="non-scaling-stroke" d="
  M 198.20 76.96
  Q 198.02 75.88 198.53 74.98
  A 0.93 0.82 13.1 0 1 199.31 74.56
  L 207.20 74.44
  A 0.51 0.50 -0.0 0 0 207.71 73.94
  L 207.74 69.88
  A 0.64 0.62 0.4 0 0 207.10 69.25
  L 199.25 69.25
  A 0.95 0.78 -12.1 0 1 198.47 68.85
  Q 197.96 67.97 198.34 67.01
  A 0.81 0.68 8.4 0 1 199.05 66.57
  L 208.55 66.34
  A 0.52 0.51 88.9 0 0 209.05 65.81
  L 208.99 61.36
  A 0.62 0.62 89.5 0 0 208.37 60.75
  L 191.42 60.75
  A 0.67 0.67 90.0 0 0 190.75 61.42
  L 190.75 82.69
  A 0.56 0.55 90.0 0 0 191.30 83.25
  L 208.94 83.19
  A 0.52 0.50 0.0 0 0 209.46 82.69
  L 209.48 78.23
  A 0.75 0.72 0.4 0 0 208.73 77.50
  L 198.82 77.45
  A 0.64 0.58 -4.2 0 1 198.20 76.96"
/>
<path stroke="#95a3cb" vector-effect="non-scaling-stroke" d="
  M 221.19 66.59
  L 226.31 66.69
  A 0.54 0.50 0.6 0 1 226.84 67.19
  L 226.84 82.69
  A 0.51 0.47 90.0 0 0 227.31 83.20
  L 233.99 83.24
  A 0.52 0.50 -89.5 0 0 234.50 82.72
  Q 234.50 75.25 234.50 68.25
  Q 234.50 66.16 236.03 66.58
  Q 236.33 66.66 236.99 66.65
  L 240.51 66.60
  A 0.51 0.46 -0.1 0 0 241.01 66.15
  L 241.09 61.33
  A 0.57 0.55 -89.5 0 0 240.54 60.75
  L 221.25 60.75
  A 0.61 0.49 0.5 0 0 220.64 61.23
  L 220.59 66.06
  A 0.62 0.52 1.6 0 0 221.19 66.59"
/>
<path stroke="#95a3cb" vector-effect="non-scaling-stroke" d="
  M 302.48 76.96
  Q 302.35 75.97 302.64 75.04
  A 0.71 0.67 7.6 0 1 303.31 74.56
  L 311.43 74.44
  A 0.53 0.50 0.0 0 0 311.96 73.94
  L 311.99 69.90
  A 0.68 0.65 0.9 0 0 311.32 69.24
  L 303.06 69.20
  A 0.55 0.52 -0.5 0 1 302.51 68.69
  L 302.51 67.06
  A 0.55 0.51 -0.6 0 1 303.05 66.55
  L 312.58 66.50
  A 0.65 0.63 0.0 0 0 313.23 65.87
  L 313.21 61.31
  A 0.51 0.51 -0.6 0 0 312.69 60.80
  L 295.68 60.92
  A 0.52 0.51 90.0 0 0 295.17 61.44
  L 295.05 82.69
  A 0.51 0.51 89.8 0 0 295.56 83.20
  L 313.18 83.19
  A 0.55 0.48 -0.5 0 0 313.73 82.70
  L 313.63 78.18
  A 0.58 0.54 0.1 0 0 313.07 77.66
  L 303.06 77.44
  A 0.62 0.55 -2.1 0 1 302.48 76.96"
/>
<path stroke="#95a3cb" vector-effect="non-scaling-stroke" d="
  M 329.56 66.76
  L 334.68 66.66
  A 0.64 0.46 -0.3 0 0 335.29 66.21
  L 335.50 61.31
  A 0.56 0.49 1.0 0 0 334.94 60.80
  L 315.69 60.92
  A 0.58 0.51 0.0 0 0 315.11 61.43
  L 315.11 65.82
  A 0.57 0.56 0.5 0 0 315.67 66.38
  L 320.54 66.45
  A 0.98 0.91 0.6 0 1 321.50 67.36
  L 321.50 82.73
  A 0.52 0.51 90.0 0 0 322.01 83.25
  L 328.69 83.20
  A 0.51 0.49 90.0 0 0 329.18 82.69
  L 329.06 67.31
  A 0.54 0.51 88.9 0 1 329.56 66.76"
/>
<path stroke="#95a3cb" vector-effect="non-scaling-stroke" d="
  M 352.20 75.31
  L 352.25 82.75
  A 0.50 0.50 0.0 0 0 352.75 83.25
  L 359.31 83.25
  A 0.52 0.51 90.0 0 0 359.82 82.73
  L 359.76 61.90
  A 1.09 1.01 89.5 0 0 358.74 60.82
  L 352.94 60.88
  A 0.57 0.55 -89.5 0 0 352.39 61.44
  L 352.29 67.88
  A 0.82 0.72 -89.3 0 1 351.56 68.69
  L 345.94 68.62
  A 0.56 0.56 0.8 0 1 345.39 68.07
  L 345.28 61.38
  A 0.64 0.61 89.5 0 0 344.67 60.75
  L 338.41 60.75
  A 0.66 0.66 0.1 0 0 337.75 61.41
  L 337.75 82.75
  A 0.50 0.50 0.0 0 0 338.25 83.25
  L 344.73 83.25
  A 0.52 0.52 90.0 0 0 345.25 82.73
  L 345.25 75.54
  A 0.60 0.55 -1.1 0 1 345.83 74.99
  L 351.68 74.86
  A 0.51 0.45 -0.6 0 1 352.20 75.31"
/>
<path stroke="#95a3cb" vector-effect="non-scaling-stroke" d="
  M 371.32 74.56
  L 379.94 74.44
  A 0.53 0.50 0.0 0 0 380.47 73.94
  L 380.44 70.07
  A 0.96 0.88 0.3 0 0 379.49 69.19
  L 371.69 69.11
  A 0.83 0.82 77.8 0 1 370.96 68.63
  Q 369.86 66.30 372.50 66.38
  Q 376.38 66.50 380.88 66.50
  A 0.87 0.87 0.0 0 0 381.75 65.63
  L 381.75 61.38
  A 0.63 0.63 89.6 0 0 381.12 60.75
  L 364.00 60.75
  A 0.50 0.50 0.0 0 0 363.50 61.25
  L 363.56 82.70
  A 0.50 0.50 0.0 0 0 364.06 83.20
  L 381.68 83.19
  A 0.52 0.48 -88.8 0 0 382.16 82.69
  L 382.31 78.44
  A 0.69 0.63 -87.8 0 0 381.70 77.72
  L 371.55 77.44
  A 0.74 0.66 -6.5 0 1 370.89 76.97
  Q 370.60 76.03 370.72 75.05
  A 0.61 0.57 3.8 0 1 371.32 74.56"
/>
<path stroke="#95a3cb" vector-effect="non-scaling-stroke" d="
  M 395.20 78.25
  L 398.27 82.80
  A 1.00 0.90 -15.2 0 0 399.07 83.20
  L 406.01 83.24
  Q 406.63 83.24 406.27 82.73
  L 402.24 76.95
  A 0.57 0.56 -37.7 0 1 402.34 76.21
  Q 405.96 73.05 405.98 69.21
  Q 406.00 65.85 403.53 63.51
  Q 401.14 61.25 397.25 61.00
  Q 390.41 60.56 385.69 60.90
  A 0.54 0.53 -1.7 0 0 385.18 61.43
  L 385.18 82.55
  A 0.57 0.50 90.0 0 0 385.68 83.12
  L 392.07 83.12
  A 0.55 0.48 89.4 0 0 392.55 82.56
  Q 392.55 81.48 392.62 80.41
  Q 392.63 80.28 392.57 78.73
  Q 392.50 77.01 394.47 77.64
  A 1.60 1.01 72.2 0 1 395.20 78.25"
/>
<path stroke="#95a3cb" vector-effect="non-scaling-stroke" d="
  M 457.55 77.98
  Q 459.44 77.67 461.35 77.56
  Q 463.88 77.41 465.07 76.96
  Q 469.03 75.45 470.10 71.63
  Q 471.09 68.10 469.25 65.07
  Q 467.01 61.38 461.75 61.00
  Q 455.21 60.53 450.18 60.90
  A 0.55 0.54 -2.3 0 0 449.67 61.44
  L 449.55 82.69
  A 0.51 0.51 89.8 0 0 450.06 83.20
  L 456.51 83.25
  A 0.84 0.72 88.1 0 0 457.22 82.36
  L 457.01 78.55
  A 0.63 0.53 -6.8 0 1 457.55 77.98"
/>
<path stroke="#95a3cb" vector-effect="non-scaling-stroke" d="
  M 511.39 79.22
  Q 512.58 81.09 513.99 82.80
  A 1.11 1.03 68.9 0 0 514.81 83.20
  L 521.77 83.24
  Q 522.28 83.24 521.98 82.82
  L 517.96 77.07
  A 0.81 0.79 -36.6 0 1 518.13 75.99
  Q 519.88 74.61 520.77 73.04
  Q 521.65 71.50 521.60 69.31
  Q 521.50 64.86 518.17 62.65
  Q 516.04 61.24 511.53 60.92
  Q 506.70 60.57 501.37 60.79
  A 0.64 0.64 -0.9 0 0 500.75 61.43
  L 500.75 82.71
  A 0.53 0.52 90.0 0 0 501.27 83.24
  L 506.79 83.24
  A 1.69 1.63 87.4 0 0 508.41 81.40
  Q 508.10 77.70 509.44 77.61
  Q 510.34 77.56 511.39 79.22"
/>
<path stroke="#95a3cb" vector-effect="non-scaling-stroke" d="
  M 537.30 66.74
  L 542.98 66.52
  A 0.54 0.49 -1.2 0 0 543.50 66.03
  L 543.50 61.27
  A 0.52 0.52 90.0 0 0 542.98 60.75
  Q 534.07 60.75 525.37 60.75
  Q 525.28 60.75 524.14 60.65
  Q 522.26 60.50 522.71 62.57
  Q 522.95 63.65 522.75 64.73
  Q 522.35 67.02 524.49 66.66
  Q 526.48 66.34 528.99 66.54
  A 0.55 0.55 2.2 0 1 529.50 67.09
  L 529.50 82.71
  A 0.53 0.52 90.0 0 0 530.02 83.24
  L 536.44 83.20
  A 0.51 0.51 -89.8 0 0 536.95 82.69
  L 536.83 67.31
  A 0.57 0.49 89.0 0 1 537.30 66.74"
/>
<path stroke="#abd69b" vector-effect="non-scaling-stroke" d="
  M 649.73 70.45
  Q 647.34 69.92 649.29 68.43
  Q 653.31 65.36 652.15 61.23
  A 0.68 0.66 81.9 0 0 651.51 60.74
  L 636.18 60.92
  A 0.52 0.49 89.4 0 0 635.69 61.45
  L 635.79 65.94
  A 0.53 0.52 90.0 0 0 636.30 66.46
  L 641.83 66.49
  Q 644.58 66.51 642.34 68.08
  Q 639.87 69.81 640.78 74.03
  A 0.81 0.80 -11.5 0 0 641.73 74.65
  Q 645.47 73.92 645.89 76.43
  A 0.65 0.64 -15.2 0 1 645.48 77.13
  Q 642.21 78.42 638.12 76.72
  A 1.15 1.13 -65.9 0 0 636.66 77.29
  L 634.93 80.90
  A 0.99 0.98 -67.1 0 0 635.47 82.25
  Q 640.62 84.09 646.23 83.35
  Q 651.14 82.70 652.83 78.78
  Q 653.81 76.51 653.26 74.13
  Q 652.56 71.07 649.73 70.45"
/>
<path stroke="#95a3cb" vector-effect="non-scaling-stroke" d="
  M 416.18 79.50
  A 4.08 4.08 0.0 0 0 412.10 75.42
  A 4.08 4.08 0.0 0 0 408.02 79.50
  A 4.08 4.08 0.0 0 0 412.10 83.58
  A 4.08 4.08 0.0 0 0 416.18 79.50"
/>
<path stroke="#a7a7a7" vector-effect="non-scaling-stroke" d="
  M 423.35 26.70
  Q 425.23 21.06 419.69 19.31
  Q 418.17 18.83 412.07 19.05
  A 0.53 0.52 -0.6 0 0 411.55 19.57
  L 411.50 29.49
  A 0.51 0.47 88.9 0 0 411.99 30.00
  L 419.70 29.68
  Q 422.39 29.58 423.35 26.70"
/>
<path stroke="#afafaf" vector-effect="non-scaling-stroke" d="
  M 456.38 33.36
  Q 459.08 29.81 457.77 25.45
  Q 456.05 19.72 449.99 19.42
  Q 447.41 19.30 443.25 19.12
  A 1.03 1.01 -88.9 0 0 442.20 20.15
  L 442.21 35.62
  A 1.26 1.23 87.7 0 0 443.54 36.88
  Q 446.40 36.64 450.00 36.75
  Q 453.72 36.87 456.38 33.36"
/>
<path stroke="#aaaaaa" vector-effect="non-scaling-stroke" d="
  M 494.07 20.40
  L 489.35 30.78
  A 0.34 0.33 11.9 0 0 489.66 31.25
  L 499.37 31.25
  A 0.33 0.32 77.2 0 0 499.66 30.78
  L 494.85 20.41
  Q 494.45 19.56 494.07 20.40"
/>
<path stroke="#a7a7a7" vector-effect="non-scaling-stroke" d="
  M 568.81 19.94
  L 564.17 30.79
  A 0.34 0.33 10.7 0 0 564.49 31.25
  L 573.69 31.20
  A 0.35 0.35 -12.8 0 0 574.00 30.71
  L 569.25 19.93
  Q 569.02 19.43 568.81 19.94"
/>
<path stroke="#e54021" vector-effect="non-scaling-stroke" d="
  M 25.81 81.47
  Q 32.54 86.61 41.14 87.51
  Q 43.99 87.81 42.10 85.66
  Q 40.74 84.12 38.06 83.44
  Q 29.34 81.22 23.34 74.62
  A 1.13 0.98 -20.7 0 0 22.50 74.31
  Q 21.23 74.39 20.17 73.78
  A 1.05 0.52 35.8 0 0 19.27 73.63
  Q 18.92 73.86 19.31 74.44
  Q 22.28 78.77 25.81 81.47"
/>
<path stroke="#95a3cb" vector-effect="non-scaling-stroke" d="
  M 254.8609 77.6399
  A 5.56 4.94 90.3 0 0 259.8299 72.1059
  A 5.56 4.94 90.3 0 0 254.9191 66.5201
  A 5.56 4.94 90.3 0 0 249.9501 72.0541
  A 5.56 4.94 90.3 0 0 254.8609 77.6399"
/>
<path stroke="#95a3cb" vector-effect="non-scaling-stroke" d="
  M 485.1290 77.6099
  A 5.54 4.94 89.7 0 0 490.0399 72.0441
  A 5.54 4.94 89.7 0 0 485.0710 66.5301
  A 5.54 4.94 89.7 0 0 480.1601 72.0959
  A 5.54 4.94 89.7 0 0 485.1290 77.6099"
/>
<path stroke="#abd69b" vector-effect="non-scaling-stroke" d="
  M 603.8700 77.7900
  A 5.74 2.55 90.0 0 0 606.4200 72.0500
  A 5.74 2.55 90.0 0 0 603.8700 66.3100
  A 5.74 2.55 90.0 0 0 601.3200 72.0500
  A 5.74 2.55 90.0 0 0 603.8700 77.7900"
/>
<path stroke="#95a3cb" vector-effect="non-scaling-stroke" d="
  M 151.90 73.97
  Q 152.61 74.16 153.30 73.94
  A 0.55 0.52 -18.3 0 0 153.66 73.27
  L 152.21 68.98
  Q 152.01 68.37 151.76 68.98
  L 150.14 73.03
  A 0.52 0.51 -70.0 0 0 150.45 73.71
  Q 150.69 73.79 150.96 73.82
  Q 151.48 73.86 151.90 73.97"
/>
<path stroke="#95a3cb" vector-effect="non-scaling-stroke" d="
  M 177.89 66.85
  Q 176.87 66.70 175.40 66.89
  A 0.72 0.72 2.8 0 0 174.78 67.45
  Q 173.52 73.31 177.80 71.92
  Q 181.45 70.74 179.82 68.16
  Q 179.10 67.02 177.89 66.85"
/>
<path stroke="#95a3cb" vector-effect="non-scaling-stroke" d="
  M 398.31 69.95
  Q 398.47 66.29 393.39 66.92
  A 0.64 0.58 -3.9 0 0 392.83 67.50
  L 392.85 71.32
  A 0.54 0.52 86.6 0 0 393.43 71.85
  L 397.17 71.44
  A 1.61 1.26 89.4 0 0 398.31 69.95"
/>
<path stroke="#95a3cb" vector-effect="non-scaling-stroke" d="
  M 462.56 70.31
  Q 463.55 67.10 460.66 66.77
  Q 459.22 66.61 458.33 66.68
  Q 456.39 66.84 457.09 69.27
  Q 457.23 69.74 457.15 70.25
  Q 456.86 72.32 458.78 71.88
  Q 459.27 71.77 459.74 71.84
  Q 462.00 72.14 462.56 70.31"
/>
<path stroke="#95a3cb" vector-effect="non-scaling-stroke" d="
  M 513.93 68.75
  Q 513.70 66.59 510.75 66.67
  Q 509.78 66.70 508.81 66.77
  A 0.60 0.52 -3.8 0 0 508.26 67.32
  L 508.41 71.25
  A 0.73 0.64 5.9 0 0 508.98 71.87
  Q 511.07 72.33 512.63 71.35
  Q 514.11 70.42 513.93 68.75"
/>
</g>
<path fill="#ffffff" d="
  M 0.00 0.00
  L 716.00 0.00
  L 716.00 107.00
  L 0.00 107.00
  L 0.00 0.00
  Z
  M 51.25 18.54
  Q 75.33 24.02 81.96 47.75
  L 82.74 54.76
  A 0.64 0.58 85.7 0 0 83.33 55.32
  L 92.94 55.19
  A 0.48 0.48 88.9 0 0 93.42 54.69
  Q 92.52 33.81 77.44 20.06
  Q 64.16 7.96 45.74 7.51
  A 0.64 0.64 8.1 0 0 45.11 7.98
  L 42.49 17.74
  A 0.42 0.41 8.2 0 0 42.89 18.25
  L 51.25 18.54
  Z
  M 80.85 16.97
  Q 96.71 32.91 97.79 54.69
  A 0.60 0.59 -88.3 0 0 98.31 55.25
  Q 102.92 55.85 107.54 55.32
  A 0.48 0.47 85.5 0 0 107.96 54.82
  Q 106.64 28.14 88.11 10.10
  A 0.54 0.52 45.8 0 0 87.37 10.08
  L 80.85 16.28
  A 0.49 0.47 46.2 0 0 80.85 16.97
  Z
  M 219.31 19.00
  Q 222.31 18.62 225.34 18.73
  Q 225.80 18.75 226.13 18.62
  Q 227.14 18.20 226.38 17.70
  Q 226.08 17.50 225.57 17.47
  Q 217.51 16.90 209.44 17.17
  A 1.16 0.76 9.4 0 0 208.60 17.54
  Q 208.27 18.00 208.54 18.53
  A 0.95 0.69 -7.7 0 0 209.31 18.94
  L 215.56 19.15
  A 0.63 0.61 86.5 0 1 216.14 19.68
  Q 216.61 22.81 216.50 24.50
  Q 216.07 31.22 216.30 37.95
  A 1.14 0.92 -75.7 0 0 216.68 38.78
  Q 217.42 39.35 218.13 38.83
  A 1.11 0.76 79.4 0 0 218.49 38.01
  L 218.78 19.56
  A 0.60 0.57 -2.9 0 1 219.31 19.00
  Z
  M 232.80 28.80
  L 244.72 28.75
  A 1.32 1.30 -89.1 0 1 246.02 30.11
  Q 245.91 34.25 245.79 37.50
  Q 245.72 39.26 247.74 38.97
  A 0.60 0.60 -4.5 0 0 248.25 38.38
  L 248.19 17.81
  A 0.67 0.63 -83.3 0 0 247.71 17.17
  Q 245.44 16.63 246.00 19.50
  Q 246.42 21.63 245.76 26.19
  A 0.59 0.58 -86.5 0 1 245.20 26.70
  L 233.02 26.74
  A 0.81 0.76 88.9 0 1 232.25 25.95
  L 232.10 17.69
  A 0.57 0.51 88.0 0 0 231.56 17.13
  L 230.54 17.20
  A 0.62 0.50 88.5 0 0 230.07 17.81
  L 230.01 37.99
  A 1.07 0.80 -77.8 0 0 230.39 38.82
  Q 231.04 39.22 231.75 38.93
  A 0.83 0.70 80.8 0 0 232.19 38.19
  L 232.31 29.31
  A 0.51 0.50 89.4 0 1 232.80 28.80
  Z
  M 257.80 26.19
  L 257.75 19.52
  A 0.51 0.51 0.6 0 1 258.27 19.01
  L 269.59 19.06
  A 0.65 0.64 7.2 0 0 270.23 18.57
  Q 270.68 16.80 269.35 16.94
  Q 268.75 17.00 268.62 17.00
  Q 262.79 17.00 256.37 17.00
  A 0.87 0.87 1.3 0 0 255.50 17.87
  L 255.50 37.95
  A 0.78 0.78 1.5 0 0 256.24 38.73
  Q 262.55 39.11 267.72 39.02
  Q 267.83 39.01 269.26 39.09
  Q 271.34 39.20 270.64 37.28
  A 0.75 0.69 -9.9 0 0 269.94 36.83
  L 258.24 37.00
  A 0.55 0.54 89.5 0 1 257.69 36.45
  L 257.69 29.44
  A 0.54 0.53 87.7 0 1 258.18 28.90
  Q 265.53 28.41 267.25 28.75
  Q 269.49 29.19 269.07 27.29
  A 0.65 0.60 -5.4 0 0 268.44 26.81
  L 258.31 26.69
  A 0.51 0.50 0.0 0 1 257.80 26.19
  Z
  M 285.84 24.49
  Q 285.01 22.68 285.76 21.16
  Q 286.45 19.79 288.43 19.23
  Q 292.50 18.07 296.38 20.19
  A 0.75 0.66 37.1 0 0 297.20 20.13
  Q 298.37 19.06 296.75 18.25
  Q 292.04 15.89 287.21 17.69
  Q 284.98 18.53 283.94 20.13
  Q 282.55 22.25 283.50 24.59
  Q 284.27 26.48 286.69 27.68
  Q 288.97 28.80 291.06 29.19
  Q 293.23 29.59 294.79 30.63
  Q 296.51 31.78 296.45 33.61
  Q 296.37 35.90 293.75 36.75
  Q 289.39 38.16 285.15 35.74
  Q 285.10 35.71 284.39 35.21
  Q 283.08 34.31 282.81 36.00
  A 0.81 0.77 22.2 0 0 283.16 36.78
  Q 288.26 40.09 294.00 38.50
  Q 299.28 37.03 298.47 32.28
  Q 298.12 30.20 296.37 29.01
  Q 294.67 27.85 292.57 27.43
  Q 289.34 26.77 286.49 25.18
  A 1.58 1.43 4.7 0 1 285.84 24.49
  Z
  M 321.29 31.31
  Q 321.68 24.56 321.45 17.80
  A 0.76 0.72 -81.1 0 0 320.98 17.11
  Q 319.32 16.50 319.50 18.75
  Q 319.78 22.26 319.37 29.88
  Q 319.22 32.67 318.49 33.98
  Q 317.34 36.04 315.00 36.75
  Q 311.15 37.91 308.54 35.80
  Q 306.79 34.38 306.30 31.06
  Q 305.36 24.58 305.72 18.01
  A 0.79 0.70 -77.4 0 0 305.31 17.27
  Q 303.48 16.42 303.62 18.56
  Q 303.72 20.00 303.69 20.44
  Q 303.42 25.67 304.04 30.83
  Q 304.49 34.67 306.36 36.60
  Q 310.05 40.42 316.26 38.17
  Q 321.00 36.46 321.29 31.31
  Z
  M 331.31 22.03
  L 339.26 35.76
  A 0.75 0.74 -45.1 0 0 340.55 35.75
  L 348.63 21.95
  Q 349.25 20.88 349.24 22.11
  L 349.08 37.95
  A 0.87 0.77 -77.6 0 0 349.49 38.69
  Q 351.47 39.73 351.33 37.48
  Q 351.25 36.11 351.25 36.01
  Q 351.29 26.91 351.19 17.80
  A 0.71 0.63 -83.1 0 0 350.73 17.13
  Q 349.53 16.78 348.80 18.06
  Q 344.61 25.37 340.27 32.98
  Q 339.90 33.63 339.53 32.97
  Q 335.25 25.43 330.95 18.10
  Q 330.49 17.31 329.90 17.07
  Q 328.52 16.50 328.52 18.50
  Q 328.50 28.25 328.50 37.99
  A 0.98 0.84 -76.7 0 0 328.91 38.79
  Q 329.90 39.39 330.39 38.74
  Q 330.69 38.33 330.66 37.32
  Q 330.40 29.79 330.50 22.23
  Q 330.52 20.67 331.31 22.03
  Z
  M 379.15 22.61
  Q 378.88 29.53 378.97 37.25
  Q 378.99 39.47 380.73 38.87
  A 0.72 0.66 81.6 0 0 381.19 38.20
  L 381.25 17.81
  A 0.89 0.89 -11.4 0 0 380.01 16.99
  Q 378.91 17.46 378.43 18.49
  Q 378.03 19.37 377.98 19.47
  Q 374.01 26.24 370.27 32.70
  A 0.53 0.52 44.8 0 1 369.36 32.70
  L 360.69 17.74
  A 1.34 1.17 80.9 0 0 359.97 17.14
  Q 358.32 16.65 358.43 18.45
  Q 358.50 19.48 358.50 19.55
  Q 358.50 28.40 358.37 37.25
  Q 358.33 39.94 360.28 38.72
  A 0.98 0.79 77.1 0 0 360.66 37.94
  L 360.75 22.49
  Q 360.76 21.17 361.43 22.34
  L 369.01 35.52
  A 0.98 0.97 -45.0 0 0 370.69 35.51
  L 378.41 22.39
  Q 379.22 21.02 379.15 22.61
  Z
  M 391.07 28.80
  Q 398.32 28.64 400.25 28.75
  Q 402.40 28.87 401.87 27.27
  A 0.73 0.67 -8.2 0 0 401.19 26.80
  L 391.06 26.83
  A 0.56 0.54 -0.0 0 1 390.50 26.29
  L 390.50 19.66
  A 0.66 0.66 0.4 0 1 391.16 19.00
  Q 395.95 19.00 400.66 19.00
  Q 400.75 19.00 401.83 19.07
  Q 403.77 19.19 403.14 17.52
  A 0.79 0.71 -8.5 0 0 402.43 17.05
  L 389.23 17.00
  A 0.93 0.92 90.0 0 0 388.31 17.93
  L 388.51 38.26
  A 0.51 0.51 88.8 0 0 389.03 38.76
  Q 395.76 38.65 401.73 39.18
  Q 404.22 39.41 403.55 37.41
  A 0.57 0.56 80.3 0 0 403.00 37.01
  L 391.02 37.07
  A 0.52 0.50 -0.0 0 1 390.50 36.57
  L 390.55 29.31
  A 0.53 0.51 -0.6 0 1 391.07 28.80
  Z
  M 421.78 31.12
  Q 425.07 29.70 425.94 26.60
  Q 426.76 23.70 425.24 21.06
  Q 423.13 17.42 417.75 17.25
  Q 411.82 17.06 409.93 17.15
  A 0.54 0.54 -1.7 0 0 409.42 17.69
  L 409.30 38.20
  A 0.74 0.73 -79.7 0 0 409.77 38.89
  Q 411.93 39.71 411.50 37.00
  Q 411.39 36.28 411.54 32.57
  A 0.53 0.53 0.2 0 1 412.05 32.06
  L 418.44 31.84
  A 1.01 0.93 -17.9 0 1 419.24 32.21
  Q 421.48 35.19 423.69 38.18
  Q 424.15 38.80 424.64 38.97
  Q 425.46 39.25 425.97 38.67
  A 0.73 0.55 49.9 0 0 425.93 37.87
  L 421.57 31.74
  A 0.44 0.40 -29.2 0 1 421.78 31.12
  Z
  M 460.34 27.92
  Q 460.60 19.83 452.58 17.63
  Q 450.44 17.04 446.73 17.01
  Q 444.06 16.98 440.82 17.02
  A 0.83 0.83 -0.3 0 0 440.00 17.85
  L 440.00 38.30
  A 0.51 0.51 1.2 0 0 440.49 38.81
  Q 445.34 39.08 450.25 38.75
  Q 455.13 38.42 457.84 35.21
  Q 460.19 32.43 460.34 27.92
  Z
  M 468.04 36.01
  L 468.18 29.78
  A 1.06 0.97 -89.1 0 1 469.15 28.75
  Q 474.13 28.75 478.00 28.80
  Q 480.28 28.82 479.28 27.16
  A 0.97 0.84 -13.6 0 0 478.49 26.75
  L 468.80 26.75
  A 0.82 0.82 -84.2 0 1 468.00 25.77
  Q 468.54 23.00 467.99 20.17
  A 0.76 0.75 -8.1 0 1 468.67 19.27
  Q 473.46 18.91 477.99 18.98
  Q 478.14 18.99 479.49 19.22
  Q 480.86 19.46 480.70 17.76
  A 0.84 0.83 87.4 0 0 479.87 17.00
  L 466.60 17.00
  A 0.85 0.85 0.2 0 0 465.75 17.85
  L 465.75 38.13
  A 0.87 0.86 89.7 0 0 466.62 39.00
  L 480.18 38.94
  A 1.20 0.95 15.7 0 0 481.04 38.58
  Q 481.70 37.79 481.04 37.19
  Q 480.61 36.80 479.73 36.85
  Q 474.28 37.17 468.79 36.94
  A 0.92 0.78 -88.3 0 1 468.04 36.01
  Z
  M 492.94 17.94
  Q 488.60 27.26 484.50 36.68
  Q 484.36 37.01 483.91 37.77
  Q 482.89 39.51 485.21 38.84
  A 1.24 1.03 -81.2 0 0 485.90 38.23
  L 488.20 33.63
  A 0.83 0.82 -76.6 0 1 488.94 33.17
  L 500.18 33.29
  A 0.82 0.76 76.7 0 1 500.89 33.77
  L 502.85 37.98
  A 1.35 1.27 87.4 0 0 503.53 38.64
  Q 506.11 39.72 505.04 37.67
  Q 504.45 36.54 504.40 36.42
  Q 500.31 27.36 496.19 18.31
  Q 494.49 14.60 492.94 17.94
  Z
  M 512.06 29.55
  L 521.75 29.50
  A 1.24 0.77 10.5 0 0 522.62 29.16
  Q 522.95 28.73 522.75 28.19
  A 0.87 0.68 -7.6 0 0 522.00 27.75
  L 512.03 27.69
  A 0.54 0.53 90.0 0 1 511.50 27.15
  L 511.50 19.50
  A 0.50 0.50 0.0 0 1 512.00 19.00
  L 523.01 19.00
  A 1.48 1.03 16.8 0 0 523.90 18.71
  Q 524.63 18.09 524.05 17.53
  Q 523.70 17.19 522.96 17.18
  Q 516.48 17.08 510.00 17.24
  A 0.53 0.52 0.6 0 0 509.48 17.74
  Q 509.08 26.87 509.24 36.01
  Q 509.24 36.12 509.16 37.49
  Q 509.04 39.60 510.97 38.89
  A 0.77 0.75 80.5 0 0 511.45 38.19
  L 511.55 30.07
  A 0.53 0.52 -90.0 0 1 512.06 29.55
  Z
  M 536.31 23.41
  Q 535.00 26.18 535.51 29.50
  Q 536.51 36.06 542.78 38.16
  Q 548.01 39.91 553.40 37.21
  A 2.46 2.36 -14.3 0 0 554.75 35.04
  L 554.70 29.06
  A 1.04 0.96 -73.5 0 0 554.30 28.24
  Q 553.15 27.40 552.69 28.51
  Q 552.48 29.02 552.65 29.99
  Q 553.10 32.65 552.34 35.21
  A 1.06 1.02 -3.4 0 1 551.72 35.88
  Q 543.16 39.28 539.16 33.04
  Q 536.81 29.39 537.76 25.60
  Q 538.84 21.28 543.72 19.52
  Q 547.94 18.01 552.69 20.81
  Q 554.94 22.14 554.33 19.79
  A 1.27 1.19 8.7 0 0 553.75 19.05
  Q 546.45 14.77 540.22 19.04
  Q 537.48 20.93 536.31 23.41
  Z
  M 567.44 18.42
  L 558.43 38.01
  A 0.63 0.63 23.5 0 0 558.77 38.86
  Q 560.49 39.54 561.07 37.52
  Q 561.49 36.05 562.57 33.93
  A 1.72 1.69 -76.1 0 1 564.08 33.00
  L 574.45 33.05
  A 0.92 0.91 -16.3 0 1 575.22 33.47
  Q 576.12 34.88 577.25 37.75
  Q 577.95 39.53 579.56 38.75
  A 0.55 0.52 64.9 0 0 579.79 38.04
  L 570.86 18.45
  Q 569.16 14.71 567.44 18.42
  Z
  M 587.05 22.92
  L 594.60 35.82
  A 0.69 0.67 -45.1 0 0 595.77 35.80
  L 603.99 21.92
  Q 604.25 21.48 604.27 22.00
  Q 604.63 29.25 604.51 36.51
  Q 604.51 36.59 604.35 37.97
  Q 604.15 39.59 605.98 38.88
  A 0.75 0.69 80.1 0 0 606.43 38.18
  Q 606.21 22.91 606.50 19.75
  Q 606.86 15.83 604.80 17.40
  Q 604.16 17.89 603.57 18.92
  Q 599.74 25.61 595.44 33.05
  A 0.30 0.30 -45.1 0 1 594.92 33.05
  Q 590.29 25.05 585.91 17.69
  Q 585.64 17.23 585.30 17.08
  Q 584.77 16.84 584.34 17.14
  A 1.21 0.72 81.6 0 0 583.98 18.01
  Q 583.59 27.00 583.74 36.00
  Q 583.74 36.12 583.66 37.49
  Q 583.54 39.60 585.47 38.89
  A 0.75 0.74 79.9 0 0 585.95 38.19
  L 585.89 23.24
  Q 585.88 20.93 587.05 22.92
  Z
  M 616.03 26.20
  L 616.14 19.68
  A 0.59 0.54 -1.8 0 1 616.69 19.15
  Q 621.92 18.76 627.16 19.14
  Q 627.95 19.20 628.37 18.87
  Q 629.12 18.28 628.55 17.39
  A 1.01 0.78 -12.5 0 0 627.76 17.02
  L 614.71 17.02
  A 0.94 0.89 -0.3 0 0 613.77 17.92
  L 613.92 38.31
  A 0.52 0.52 0.0 0 0 614.44 38.83
  L 628.20 38.95
  A 1.02 1.00 18.0 0 0 629.01 38.55
  Q 630.02 37.19 628.06 37.16
  Q 622.41 37.04 616.73 37.00
  A 0.74 0.74 0.4 0 1 616.00 36.26
  L 616.00 29.25
  A 0.50 0.50 0.0 0 1 616.50 28.75
  Q 621.25 28.75 626.00 28.82
  Q 628.23 28.85 627.27 27.17
  A 0.93 0.84 -13.0 0 0 626.51 26.75
  L 616.56 26.70
  A 0.54 0.49 1.1 0 1 616.03 26.20
  Z
  M 633.61 20.62
  Q 632.66 22.91 633.57 24.90
  Q 634.29 26.50 636.44 27.56
  Q 638.28 28.46 640.32 28.89
  Q 642.48 29.35 644.39 30.37
  Q 646.25 31.36 646.51 33.03
  Q 646.87 35.39 644.25 36.50
  Q 639.88 38.36 635.26 35.80
  Q 635.23 35.78 634.31 35.10
  Q 633.23 34.31 632.79 35.87
  A 0.75 0.75 23.9 0 0 633.12 36.72
  Q 638.56 40.00 643.85 38.56
  Q 646.47 37.84 647.82 35.80
  Q 649.73 32.91 647.65 30.33
  Q 646.44 28.84 643.16 27.72
  Q 640.65 26.86 638.16 25.94
  Q 636.54 25.34 635.93 24.34
  Q 634.99 22.82 635.70 21.31
  Q 636.43 19.76 638.56 19.14
  Q 642.22 18.07 645.74 19.96
  Q 646.44 20.34 646.83 20.34
  Q 647.82 20.35 647.56 19.04
  A 1.06 0.94 8.3 0 0 646.98 18.35
  Q 642.29 16.26 637.24 17.50
  Q 634.64 18.14 633.61 20.62
  Z
  M 36.75 34.29
  Q 53.54 30.77 63.75 44.04
  Q 66.62 48.54 67.95 54.68
  A 0.73 0.71 83.4 0 0 68.65 55.25
  L 77.51 55.25
  A 0.52 0.52 -4.7 0 0 78.02 54.65
  Q 75.53 38.79 63.93 30.36
  Q 55.65 24.34 45.40 23.63
  Q 31.55 22.68 19.86 32.48
  A 0.93 0.88 -41.3 0 0 19.74 33.79
  L 25.64 40.15
  A 0.52 0.49 -43.4 0 0 26.36 40.15
  Q 30.81 35.95 36.75 34.29
  Z
  M 29.02 46.76
  Q 26.14 49.89 25.14 54.93
  A 0.48 0.48 -84.5 0 0 25.61 55.50
  L 33.74 55.50
  A 0.67 0.65 -77.0 0 0 34.33 55.12
  Q 36.73 49.91 41.46 48.94
  Q 44.84 48.24 47.81 49.97
  Q 50.67 51.64 52.43 55.03
  A 0.84 0.81 75.4 0 0 53.18 55.49
  L 61.19 55.45
  A 0.41 0.41 83.8 0 0 61.59 54.95
  Q 60.65 50.42 57.93 46.92
  Q 55.42 43.68 51.19 41.67
  Q 39.02 35.89 29.02 46.76
  Z
  M 561.7357 59.7956
  A 0.27 0.27 0.0 0 0 561.4662 59.5251
  L 555.6662 59.5150
  A 0.27 0.27 0.0 0 0 555.3957 59.7845
  L 555.3443 89.2244
  A 0.27 0.27 0.0 0 0 555.6138 89.4949
  L 561.4138 89.5050
  A 0.27 0.27 0.0 0 0 561.6843 89.2355
  L 561.7357 59.7956
  Z
  M 36.68 81.06
  Q 22.63 76.58 19.17 61.18
  A 0.69 0.68 85.9 0 0 18.56 60.64
  Q 14.05 60.18 9.55 60.75
  A 0.50 0.49 82.5 0 0 9.13 61.31
  Q 10.59 71.57 16.61 79.14
  Q 22.65 86.74 31.66 89.96
  Q 42.45 93.82 55.12 90.36
  A 1.14 1.13 -6.8 0 0 55.97 89.29
  L 56.18 79.83
  A 0.59 0.58 -13.4 0 0 55.32 79.31
  Q 50.89 81.62 46.07 82.12
  Q 41.52 82.60 36.68 81.06
  Z
  M 50.71 63.50
  Q 41.89 71.83 34.75 62.21
  Q 34.50 60.28 32.73 60.39
  Q 31.39 60.47 31.27 60.46
  Q 28.27 60.33 25.31 60.74
  A 0.45 0.44 -11.5 0 0 24.94 61.29
  Q 27.64 71.25 35.88 74.73
  Q 43.62 78.01 51.06 74.52
  Q 58.66 70.96 61.60 61.42
  A 0.70 0.70 -81.7 0 0 60.93 60.51
  L 53.06 60.55
  A 0.98 0.76 -69.6 0 0 52.34 61.00
  L 50.71 63.50
  Z
  M 267.5200 72.0921
  A 12.64 11.75 0.1 0 0 254.9005 60.3200
  A 12.64 11.75 0.1 0 0 242.2400 72.0479
  A 12.64 11.75 0.1 0 0 254.8595 83.8200
  A 12.64 11.75 0.1 0 0 267.5200 72.0921
  Z
  M 284.70 77.29
  Q 277.69 78.64 277.29 72.45
  Q 277.15 70.26 277.98 68.80
  Q 279.03 66.92 281.25 66.50
  Q 284.54 65.88 287.21 68.35
  A 0.61 0.55 45.6 0 0 287.98 68.40
  L 291.74 65.14
  A 0.82 0.78 42.8 0 0 291.66 63.90
  Q 285.73 59.36 279.01 60.81
  Q 274.08 61.88 271.57 65.54
  Q 269.21 68.97 269.67 73.48
  Q 270.14 78.14 273.76 80.98
  Q 276.84 83.40 281.24 83.66
  Q 286.50 83.97 291.27 81.19
  A 0.87 0.86 75.0 0 0 291.70 80.44
  L 291.75 72.38
  A 0.82 0.78 89.7 0 0 290.96 71.56
  L 285.93 71.62
  A 0.58 0.55 -89.4 0 0 285.39 72.18
  L 285.18 76.70
  A 0.63 0.59 86.1 0 1 284.70 77.29
  Z
  M 428.94 63.94
  Q 426.05 67.86 428.45 71.11
  Q 429.82 72.97 433.06 74.02
  Q 435.20 74.70 438.44 75.56
  Q 440.49 76.10 439.55 77.23
  Q 439.11 77.76 438.26 77.86
  Q 434.48 78.31 430.69 76.51
  A 1.01 1.00 29.9 0 0 429.44 76.84
  Q 427.73 79.32 427.58 81.19
  A 0.75 0.71 15.5 0 0 428.01 81.90
  Q 431.83 83.69 435.97 83.68
  Q 439.17 83.66 441.03 83.26
  Q 443.78 82.65 445.56 80.56
  Q 447.64 78.12 447.08 75.23
  Q 446.58 72.66 444.22 71.14
  Q 441.95 69.67 438.83 69.47
  Q 437.18 69.37 435.79 68.46
  Q 434.16 67.41 435.58 66.57
  Q 436.14 66.24 437.00 66.19
  Q 440.33 66.02 443.36 67.46
  A 0.58 0.45 24.1 0 0 444.09 67.28
  L 445.91 62.73
  A 0.60 0.50 22.6 0 0 445.55 62.05
  Q 441.13 60.12 436.24 60.36
  Q 431.39 60.60 428.94 63.94
  Z
  M 497.6900 72.0480
  A 12.62 11.75 -0.1 0 0 485.0495 60.3200
  A 12.62 11.75 -0.1 0 0 472.4500 72.0920
  A 12.62 11.75 -0.1 0 0 485.0905 83.8200
  A 12.62 11.75 -0.1 0 0 497.6900 72.0480
  Z
  M 585.40 77.06
  Q 586.92 75.36 588.49 73.70
  Q 590.47 71.61 591.08 70.02
  Q 592.55 66.20 590.11 63.42
  Q 588.25 61.30 584.84 60.62
  Q 578.33 59.31 573.53 64.60
  A 0.85 0.83 34.9 0 0 573.78 65.90
  L 577.95 68.07
  A 1.02 0.98 29.0 0 0 579.27 67.72
  Q 580.16 66.21 582.64 66.60
  A 1.63 1.63 12.6 0 1 583.95 68.66
  Q 583.51 70.23 582.17 71.43
  Q 578.48 74.75 574.87 78.15
  A 1.40 0.83 -30.6 0 0 574.41 78.99
  L 574.26 82.69
  A 0.56 0.49 1.0 0 0 574.82 83.20
  L 591.68 83.20
  A 0.53 0.52 0.0 0 0 592.21 82.68
  L 592.23 78.13
  A 0.65 0.63 0.0 0 0 591.58 77.50
  L 585.57 77.46
  Q 585.05 77.45 585.40 77.06
  Z
  M 603.7988 83.8399
  A 11.79 10.23 90.2 0 0 614.0699 72.0857
  A 11.79 10.23 90.2 0 0 603.8812 60.2601
  A 11.79 10.23 90.2 0 0 593.6101 72.0143
  A 11.79 10.23 90.2 0 0 603.7988 83.8399
  Z
  M 627.31 77.43
  Q 626.29 77.40 627.06 76.75
  Q 629.79 74.41 631.53 72.07
  Q 634.30 68.32 632.81 64.95
  Q 631.59 62.19 627.96 60.99
  Q 621.02 58.69 615.45 64.43
  A 1.00 0.97 35.4 0 0 615.74 65.99
  L 619.66 68.05
  A 0.97 0.91 31.2 0 0 620.86 67.79
  Q 621.97 66.26 624.30 66.57
  Q 626.35 66.85 625.65 68.79
  Q 624.99 70.59 623.31 72.07
  Q 619.92 75.06 616.62 78.16
  A 1.36 0.83 -29.9 0 0 616.16 78.99
  L 616.01 82.69
  A 0.55 0.48 1.0 0 0 616.56 83.19
  L 633.13 83.25
  A 0.69 0.68 -0.0 0 0 633.82 82.57
  L 633.82 78.19
  A 0.54 0.52 -88.9 0 0 633.32 77.65
  L 627.31 77.43
  Z
  M 95.61 72.29
  L 92.35 61.29
  A 0.70 0.69 -7.2 0 0 91.69 60.79
  L 86.24 60.75
  A 1.33 1.23 -80.1 0 0 85.03 61.67
  L 81.81 71.80
  Q 81.15 73.88 80.51 71.75
  L 77.35 61.31
  A 0.74 0.70 81.1 0 0 76.67 60.79
  L 70.19 60.89
  A 0.40 0.38 81.1 0 0 69.83 61.41
  L 76.53 82.59
  A 0.75 0.67 80.7 0 0 77.19 83.12
  L 84.32 83.12
  A 0.77 0.66 -80.0 0 0 84.98 82.58
  L 88.00 72.73
  Q 88.58 70.85 89.14 72.73
  L 92.00 82.28
  A 1.35 1.35 81.6 0 0 93.29 83.24
  L 99.94 83.20
  A 0.70 0.68 -80.5 0 0 100.59 82.72
  L 107.36 61.39
  A 0.46 0.44 -80.7 0 0 106.95 60.80
  L 101.01 60.75
  A 0.70 0.70 -81.6 0 0 100.34 61.25
  L 96.81 72.33
  Q 96.19 74.27 95.61 72.29
  Z
  M 117.82 66.55
  L 127.24 66.50
  A 0.73 0.72 -6.9 0 0 127.95 65.61
  Q 127.47 63.62 127.95 61.64
  A 0.72 0.72 6.9 0 0 127.25 60.75
  L 110.31 60.75
  A 0.56 0.56 0.0 0 0 109.75 61.31
  L 109.75 82.71
  A 0.53 0.52 90.0 0 0 110.27 83.24
  L 127.80 83.08
  A 0.56 0.51 -0.5 0 0 128.36 82.56
  L 128.26 78.30
  A 0.59 0.54 0.6 0 0 127.69 77.77
  L 117.82 77.43
  A 0.81 0.68 -7.2 0 1 117.12 76.98
  Q 116.15 74.40 119.00 74.45
  Q 122.37 74.50 125.97 74.50
  A 0.58 0.55 -89.5 0 0 126.52 73.93
  L 126.60 69.76
  A 0.50 0.48 -89.4 0 0 126.12 69.25
  L 118.25 69.25
  A 1.26 0.93 -15.4 0 1 117.39 68.92
  Q 116.64 68.09 117.09 67.00
  A 0.84 0.71 8.8 0 1 117.82 66.55
  Z
  M 156.42 80.01
  L 157.63 82.72
  A 0.82 0.71 75.9 0 0 158.31 83.20
  L 164.87 83.24
  A 0.35 0.35 78.5 0 0 165.19 82.75
  L 155.90 61.52
  A 0.93 0.70 75.4 0 0 155.20 60.96
  L 149.52 60.90
  A 2.35 1.91 -75.4 0 0 147.60 62.31
  L 138.64 82.78
  A 0.34 0.34 -78.5 0 0 138.95 83.25
  L 145.43 83.25
  A 1.28 1.28 -87.0 0 0 146.70 82.10
  Q 146.82 80.94 147.50 79.96
  A 0.99 0.97 17.3 0 1 148.30 79.55
  L 155.69 79.54
  A 0.80 0.79 -11.9 0 1 156.42 80.01
  Z
  M 184.15 76.20
  Q 188.20 73.08 187.69 68.53
  Q 187.33 65.27 185.01 63.19
  Q 182.63 61.04 179.01 60.86
  Q 174.13 60.60 167.80 60.79
  A 0.80 0.78 -1.5 0 0 167.03 61.58
  L 167.05 82.45
  A 0.58 0.51 -90.0 0 0 167.56 83.03
  L 173.66 83.12
  A 0.65 0.59 -89.6 0 0 174.26 82.47
  Q 174.21 74.30 177.91 79.83
  Q 178.92 81.34 180.01 82.79
  A 1.04 1.00 70.9 0 0 180.82 83.20
  L 187.52 83.25
  Q 188.34 83.26 187.87 82.56
  L 184.03 76.92
  A 0.54 0.53 -36.1 0 1 184.15 76.20
  Z
  M 198.20 76.96
  Q 198.02 75.88 198.53 74.98
  A 0.93 0.82 13.1 0 1 199.31 74.56
  L 207.20 74.44
  A 0.51 0.50 -0.0 0 0 207.71 73.94
  L 207.74 69.88
  A 0.64 0.62 0.4 0 0 207.10 69.25
  L 199.25 69.25
  A 0.95 0.78 -12.1 0 1 198.47 68.85
  Q 197.96 67.97 198.34 67.01
  A 0.81 0.68 8.4 0 1 199.05 66.57
  L 208.55 66.34
  A 0.52 0.51 88.9 0 0 209.05 65.81
  L 208.99 61.36
  A 0.62 0.62 89.5 0 0 208.37 60.75
  L 191.42 60.75
  A 0.67 0.67 90.0 0 0 190.75 61.42
  L 190.75 82.69
  A 0.56 0.55 90.0 0 0 191.30 83.25
  L 208.94 83.19
  A 0.52 0.50 0.0 0 0 209.46 82.69
  L 209.48 78.23
  A 0.75 0.72 0.4 0 0 208.73 77.50
  L 198.82 77.45
  A 0.64 0.58 -4.2 0 1 198.20 76.96
  Z
  M 221.19 66.59
  L 226.31 66.69
  A 0.54 0.50 0.6 0 1 226.84 67.19
  L 226.84 82.69
  A 0.51 0.47 90.0 0 0 227.31 83.20
  L 233.99 83.24
  A 0.52 0.50 -89.5 0 0 234.50 82.72
  Q 234.50 75.25 234.50 68.25
  Q 234.50 66.16 236.03 66.58
  Q 236.33 66.66 236.99 66.65
  L 240.51 66.60
  A 0.51 0.46 -0.1 0 0 241.01 66.15
  L 241.09 61.33
  A 0.57 0.55 -89.5 0 0 240.54 60.75
  L 221.25 60.75
  A 0.61 0.49 0.5 0 0 220.64 61.23
  L 220.59 66.06
  A 0.62 0.52 1.6 0 0 221.19 66.59
  Z
  M 302.48 76.96
  Q 302.35 75.97 302.64 75.04
  A 0.71 0.67 7.6 0 1 303.31 74.56
  L 311.43 74.44
  A 0.53 0.50 0.0 0 0 311.96 73.94
  L 311.99 69.90
  A 0.68 0.65 0.9 0 0 311.32 69.24
  L 303.06 69.20
  A 0.55 0.52 -0.5 0 1 302.51 68.69
  L 302.51 67.06
  A 0.55 0.51 -0.6 0 1 303.05 66.55
  L 312.58 66.50
  A 0.65 0.63 0.0 0 0 313.23 65.87
  L 313.21 61.31
  A 0.51 0.51 -0.6 0 0 312.69 60.80
  L 295.68 60.92
  A 0.52 0.51 90.0 0 0 295.17 61.44
  L 295.05 82.69
  A 0.51 0.51 89.8 0 0 295.56 83.20
  L 313.18 83.19
  A 0.55 0.48 -0.5 0 0 313.73 82.70
  L 313.63 78.18
  A 0.58 0.54 0.1 0 0 313.07 77.66
  L 303.06 77.44
  A 0.62 0.55 -2.1 0 1 302.48 76.96
  Z
  M 329.56 66.76
  L 334.68 66.66
  A 0.64 0.46 -0.3 0 0 335.29 66.21
  L 335.50 61.31
  A 0.56 0.49 1.0 0 0 334.94 60.80
  L 315.69 60.92
  A 0.58 0.51 0.0 0 0 315.11 61.43
  L 315.11 65.82
  A 0.57 0.56 0.5 0 0 315.67 66.38
  L 320.54 66.45
  A 0.98 0.91 0.6 0 1 321.50 67.36
  L 321.50 82.73
  A 0.52 0.51 90.0 0 0 322.01 83.25
  L 328.69 83.20
  A 0.51 0.49 90.0 0 0 329.18 82.69
  L 329.06 67.31
  A 0.54 0.51 88.9 0 1 329.56 66.76
  Z
  M 352.20 75.31
  L 352.25 82.75
  A 0.50 0.50 0.0 0 0 352.75 83.25
  L 359.31 83.25
  A 0.52 0.51 90.0 0 0 359.82 82.73
  L 359.76 61.90
  A 1.09 1.01 89.5 0 0 358.74 60.82
  L 352.94 60.88
  A 0.57 0.55 -89.5 0 0 352.39 61.44
  L 352.29 67.88
  A 0.82 0.72 -89.3 0 1 351.56 68.69
  L 345.94 68.62
  A 0.56 0.56 0.8 0 1 345.39 68.07
  L 345.28 61.38
  A 0.64 0.61 89.5 0 0 344.67 60.75
  L 338.41 60.75
  A 0.66 0.66 0.1 0 0 337.75 61.41
  L 337.75 82.75
  A 0.50 0.50 0.0 0 0 338.25 83.25
  L 344.73 83.25
  A 0.52 0.52 90.0 0 0 345.25 82.73
  L 345.25 75.54
  A 0.60 0.55 -1.1 0 1 345.83 74.99
  L 351.68 74.86
  A 0.51 0.45 -0.6 0 1 352.20 75.31
  Z
  M 371.32 74.56
  L 379.94 74.44
  A 0.53 0.50 0.0 0 0 380.47 73.94
  L 380.44 70.07
  A 0.96 0.88 0.3 0 0 379.49 69.19
  L 371.69 69.11
  A 0.83 0.82 77.8 0 1 370.96 68.63
  Q 369.86 66.30 372.50 66.38
  Q 376.38 66.50 380.88 66.50
  A 0.87 0.87 0.0 0 0 381.75 65.63
  L 381.75 61.38
  A 0.63 0.63 89.6 0 0 381.12 60.75
  L 364.00 60.75
  A 0.50 0.50 0.0 0 0 363.50 61.25
  L 363.56 82.70
  A 0.50 0.50 0.0 0 0 364.06 83.20
  L 381.68 83.19
  A 0.52 0.48 -88.8 0 0 382.16 82.69
  L 382.31 78.44
  A 0.69 0.63 -87.8 0 0 381.70 77.72
  L 371.55 77.44
  A 0.74 0.66 -6.5 0 1 370.89 76.97
  Q 370.60 76.03 370.72 75.05
  A 0.61 0.57 3.8 0 1 371.32 74.56
  Z
  M 395.20 78.25
  L 398.27 82.80
  A 1.00 0.90 -15.2 0 0 399.07 83.20
  L 406.01 83.24
  Q 406.63 83.24 406.27 82.73
  L 402.24 76.95
  A 0.57 0.56 -37.7 0 1 402.34 76.21
  Q 405.96 73.05 405.98 69.21
  Q 406.00 65.85 403.53 63.51
  Q 401.14 61.25 397.25 61.00
  Q 390.41 60.56 385.69 60.90
  A 0.54 0.53 -1.7 0 0 385.18 61.43
  L 385.18 82.55
  A 0.57 0.50 90.0 0 0 385.68 83.12
  L 392.07 83.12
  A 0.55 0.48 89.4 0 0 392.55 82.56
  Q 392.55 81.48 392.62 80.41
  Q 392.63 80.28 392.57 78.73
  Q 392.50 77.01 394.47 77.64
  A 1.60 1.01 72.2 0 1 395.20 78.25
  Z
  M 457.55 77.98
  Q 459.44 77.67 461.35 77.56
  Q 463.88 77.41 465.07 76.96
  Q 469.03 75.45 470.10 71.63
  Q 471.09 68.10 469.25 65.07
  Q 467.01 61.38 461.75 61.00
  Q 455.21 60.53 450.18 60.90
  A 0.55 0.54 -2.3 0 0 449.67 61.44
  L 449.55 82.69
  A 0.51 0.51 89.8 0 0 450.06 83.20
  L 456.51 83.25
  A 0.84 0.72 88.1 0 0 457.22 82.36
  L 457.01 78.55
  A 0.63 0.53 -6.8 0 1 457.55 77.98
  Z
  M 511.39 79.22
  Q 512.58 81.09 513.99 82.80
  A 1.11 1.03 68.9 0 0 514.81 83.20
  L 521.77 83.24
  Q 522.28 83.24 521.98 82.82
  L 517.96 77.07
  A 0.81 0.79 -36.6 0 1 518.13 75.99
  Q 519.88 74.61 520.77 73.04
  Q 521.65 71.50 521.60 69.31
  Q 521.50 64.86 518.17 62.65
  Q 516.04 61.24 511.53 60.92
  Q 506.70 60.57 501.37 60.79
  A 0.64 0.64 -0.9 0 0 500.75 61.43
  L 500.75 82.71
  A 0.53 0.52 90.0 0 0 501.27 83.24
  L 506.79 83.24
  A 1.69 1.63 87.4 0 0 508.41 81.40
  Q 508.10 77.70 509.44 77.61
  Q 510.34 77.56 511.39 79.22
  Z
  M 537.30 66.74
  L 542.98 66.52
  A 0.54 0.49 -1.2 0 0 543.50 66.03
  L 543.50 61.27
  A 0.52 0.52 90.0 0 0 542.98 60.75
  Q 534.07 60.75 525.37 60.75
  Q 525.28 60.75 524.14 60.65
  Q 522.26 60.50 522.71 62.57
  Q 522.95 63.65 522.75 64.73
  Q 522.35 67.02 524.49 66.66
  Q 526.48 66.34 528.99 66.54
  A 0.55 0.55 2.2 0 1 529.50 67.09
  L 529.50 82.71
  A 0.53 0.52 90.0 0 0 530.02 83.24
  L 536.44 83.20
  A 0.51 0.51 -89.8 0 0 536.95 82.69
  L 536.83 67.31
  A 0.57 0.49 89.0 0 1 537.30 66.74
  Z
  M 649.73 70.45
  Q 647.34 69.92 649.29 68.43
  Q 653.31 65.36 652.15 61.23
  A 0.68 0.66 81.9 0 0 651.51 60.74
  L 636.18 60.92
  A 0.52 0.49 89.4 0 0 635.69 61.45
  L 635.79 65.94
  A 0.53 0.52 90.0 0 0 636.30 66.46
  L 641.83 66.49
  Q 644.58 66.51 642.34 68.08
  Q 639.87 69.81 640.78 74.03
  A 0.81 0.80 -11.5 0 0 641.73 74.65
  Q 645.47 73.92 645.89 76.43
  A 0.65 0.64 -15.2 0 1 645.48 77.13
  Q 642.21 78.42 638.12 76.72
  A 1.15 1.13 -65.9 0 0 636.66 77.29
  L 634.93 80.90
  A 0.99 0.98 -67.1 0 0 635.47 82.25
  Q 640.62 84.09 646.23 83.35
  Q 651.14 82.70 652.83 78.78
  Q 653.81 76.51 653.26 74.13
  Q 652.56 71.07 649.73 70.45
  Z
  M 416.18 79.50
  A 4.08 4.08 0.0 0 0 412.10 75.42
  A 4.08 4.08 0.0 0 0 408.02 79.50
  A 4.08 4.08 0.0 0 0 412.10 83.58
  A 4.08 4.08 0.0 0 0 416.18 79.50
  Z"
/>
<path fill="#06a1e2" d="
  M 81.96 47.75
  Q 84.66 48.14 86.43 50.11
  A 0.95 0.69 58.3 0 0 87.25 50.45
  Q 87.94 50.28 87.75 49.50
  Q 80.12 18.88 48.68 12.13
  A 1.18 1.17 0.7 0 0 47.27 13.50
  Q 47.86 16.57 51.18 16.79
  A 1.80 1.12 -13.1 0 1 52.09 17.10
  Q 53.59 18.29 51.25 18.54
  L 42.89 18.25
  A 0.42 0.41 8.2 0 1 42.49 17.74
  L 45.11 7.98
  A 0.64 0.64 8.1 0 1 45.74 7.51
  Q 64.16 7.96 77.44 20.06
  Q 92.52 33.81 93.42 54.69
  A 0.48 0.48 88.9 0 1 92.94 55.19
  L 83.33 55.32
  A 0.64 0.58 85.7 0 1 82.74 54.76
  L 81.96 47.75
  Z"
/>
<path fill="#2b4797" d="
  M 80.85 16.97
  A 0.49 0.47 46.2 0 1 80.85 16.28
  L 87.37 10.08
  A 0.54 0.52 45.8 0 1 88.11 10.10
  Q 106.64 28.14 107.96 54.82
  A 0.48 0.47 85.5 0 1 107.54 55.32
  Q 102.92 55.85 98.31 55.25
  A 0.60 0.59 -88.3 0 1 97.79 54.69
  Q 96.71 32.91 80.85 16.97
  Z"
/>
<path fill="#178dd2" d="
  M 81.96 47.75
  Q 75.33 24.02 51.25 18.54
  Q 53.59 18.29 52.09 17.10
  A 1.80 1.12 -13.1 0 0 51.18 16.79
  Q 47.86 16.57 47.27 13.50
  A 1.18 1.17 0.7 0 1 48.68 12.13
  Q 80.12 18.88 87.75 49.50
  Q 87.94 50.28 87.25 50.45
  A 0.95 0.69 58.3 0 1 86.43 50.11
  Q 84.66 48.14 81.96 47.75
  Z"
/>
<path fill="#5f5e5e" d="
  M 218.78 19.56
  L 218.49 38.01
  A 1.11 0.76 79.4 0 1 218.13 38.83
  Q 217.42 39.35 216.68 38.78
  A 1.14 0.92 -75.7 0 1 216.30 37.95
  Q 216.07 31.22 216.50 24.50
  Q 216.61 22.81 216.14 19.68
  A 0.63 0.61 86.5 0 0 215.56 19.15
  L 209.31 18.94
  A 0.95 0.69 -7.7 0 1 208.54 18.53
  Q 208.27 18.00 208.60 17.54
  A 1.16 0.76 9.4 0 1 209.44 17.17
  Q 217.51 16.90 225.57 17.47
  Q 226.08 17.50 226.38 17.70
  Q 227.14 18.20 226.13 18.62
  Q 225.80 18.75 225.34 18.73
  Q 222.31 18.62 219.31 19.00
  A 0.60 0.57 -2.9 0 0 218.78 19.56
  Z"
/>
<path fill="#5f5e5e" d="
  M 232.31 29.31
  L 232.19 38.19
  A 0.83 0.70 80.8 0 1 231.75 38.93
  Q 231.04 39.22 230.39 38.82
  A 1.07 0.80 -77.8 0 1 230.01 37.99
  L 230.07 17.81
  A 0.62 0.50 88.5 0 1 230.54 17.20
  L 231.56 17.13
  A 0.57 0.51 88.0 0 1 232.10 17.69
  L 232.25 25.95
  A 0.81 0.76 88.9 0 0 233.02 26.74
  L 245.20 26.70
  A 0.59 0.58 -86.5 0 0 245.76 26.19
  Q 246.42 21.63 246.00 19.50
  Q 245.44 16.63 247.71 17.17
  A 0.67 0.63 -83.3 0 1 248.19 17.81
  L 248.25 38.38
  A 0.60 0.60 -4.5 0 1 247.74 38.97
  Q 245.72 39.26 245.79 37.50
  Q 245.91 34.25 246.02 30.11
  A 1.32 1.30 -89.1 0 0 244.72 28.75
  L 232.80 28.80
  A 0.51 0.50 89.4 0 0 232.31 29.31
  Z"
/>
<path fill="#555454" d="
  M 258.31 26.69
  L 268.44 26.81
  A 0.65 0.60 -5.4 0 1 269.07 27.29
  Q 269.49 29.19 267.25 28.75
  Q 265.53 28.41 258.18 28.90
  A 0.54 0.53 87.7 0 0 257.69 29.44
  L 257.69 36.45
  A 0.55 0.54 89.5 0 0 258.24 37.00
  L 269.94 36.83
  A 0.75 0.69 -9.9 0 1 270.64 37.28
  Q 271.34 39.20 269.26 39.09
  Q 267.83 39.01 267.72 39.02
  Q 262.55 39.11 256.24 38.73
  A 0.78 0.78 1.5 0 1 255.50 37.95
  L 255.50 17.87
  A 0.87 0.87 -1.3 0 1 256.37 17.00
  Q 262.79 17.00 268.62 17.00
  Q 268.75 17.00 269.35 16.94
  Q 270.68 16.80 270.23 18.57
  A 0.65 0.64 7.2 0 1 269.59 19.06
  L 258.27 19.01
  A 0.51 0.51 0.6 0 0 257.75 19.52
  L 257.80 26.19
  A 0.51 0.50 0.0 0 0 258.31 26.69
  Z"
/>
<path fill="#4e4e4e" d="
  M 286.49 25.18
  Q 289.34 26.77 292.57 27.43
  Q 294.67 27.85 296.37 29.01
  Q 298.12 30.20 298.47 32.28
  Q 299.28 37.03 294.00 38.50
  Q 288.26 40.09 283.16 36.78
  A 0.81 0.77 22.2 0 1 282.81 36.00
  Q 283.08 34.31 284.39 35.21
  Q 285.10 35.71 285.15 35.74
  Q 289.39 38.16 293.75 36.75
  Q 296.37 35.90 296.45 33.61
  Q 296.51 31.78 294.79 30.63
  Q 293.23 29.59 291.06 29.19
  Q 288.97 28.80 286.69 27.68
  Q 284.27 26.48 283.50 24.59
  Q 282.55 22.25 283.94 20.13
  Q 284.98 18.53 287.21 17.69
  Q 292.04 15.89 296.75 18.25
  Q 298.37 19.06 297.20 20.13
  A 0.75 0.66 37.1 0 1 296.38 20.19
  Q 292.50 18.07 288.43 19.23
  Q 286.45 19.79 285.76 21.16
  Q 285.01 22.68 285.84 24.49
  A 1.58 1.43 4.7 0 0 286.49 25.18
  Z"
/>
<path fill="#494948" d="
  M 321.29 31.31
  Q 321.00 36.46 316.26 38.17
  Q 310.05 40.42 306.36 36.60
  Q 304.49 34.67 304.04 30.83
  Q 303.42 25.67 303.69 20.44
  Q 303.72 20.00 303.62 18.56
  Q 303.48 16.42 305.31 17.27
  A 0.79 0.70 -77.4 0 1 305.72 18.01
  Q 305.36 24.58 306.30 31.06
  Q 306.79 34.38 308.54 35.80
  Q 311.15 37.91 315.00 36.75
  Q 317.34 36.04 318.49 33.98
  Q 319.22 32.67 319.37 29.88
  Q 319.78 22.26 319.50 18.75
  Q 319.32 16.50 320.98 17.11
  A 0.76 0.72 -81.1 0 1 321.45 17.80
  Q 321.68 24.56 321.29 31.31
  Z"
/>
<path fill="#494948" d="
  M 331.31 22.03
  Q 330.52 20.67 330.50 22.23
  Q 330.40 29.79 330.66 37.32
  Q 330.69 38.33 330.39 38.74
  Q 329.90 39.39 328.91 38.79
  A 0.98 0.84 -76.7 0 1 328.50 37.99
  Q 328.50 28.25 328.52 18.50
  Q 328.52 16.50 329.90 17.07
  Q 330.49 17.31 330.95 18.10
  Q 335.25 25.43 339.53 32.97
  Q 339.90 33.63 340.27 32.98
  Q 344.61 25.37 348.80 18.06
  Q 349.53 16.78 350.73 17.13
  A 0.71 0.63 -83.1 0 1 351.19 17.80
  Q 351.29 26.91 351.25 36.01
  Q 351.25 36.11 351.33 37.48
  Q 351.47 39.73 349.49 38.69
  A 0.87 0.77 -77.6 0 1 349.08 37.95
  L 349.24 22.11
  Q 349.25 20.88 348.63 21.95
  L 340.55 35.75
  A 0.75 0.74 -45.1 0 1 339.26 35.76
  L 331.31 22.03
  Z"
/>
<path fill="#4e4e4e" d="
  M 379.15 22.61
  Q 379.22 21.02 378.41 22.39
  L 370.69 35.51
  A 0.98 0.97 -45.0 0 1 369.01 35.52
  L 361.43 22.34
  Q 360.76 21.17 360.75 22.49
  L 360.66 37.94
  A 0.98 0.79 77.1 0 1 360.28 38.72
  Q 358.33 39.94 358.37 37.25
  Q 358.50 28.40 358.50 19.55
  Q 358.50 19.48 358.43 18.45
  Q 358.32 16.65 359.97 17.14
  A 1.34 1.17 80.9 0 1 360.69 17.74
  L 369.36 32.70
  A 0.53 0.52 44.8 0 0 370.27 32.70
  Q 374.01 26.24 377.98 19.47
  Q 378.03 19.37 378.43 18.49
  Q 378.91 17.46 380.01 16.99
  A 0.89 0.89 -11.4 0 1 381.25 17.81
  L 381.19 38.20
  A 0.72 0.66 81.6 0 1 380.73 38.87
  Q 378.99 39.47 378.97 37.25
  Q 378.88 29.53 379.15 22.61
  Z"
/>
<path fill="#4e4e4e" d="
  M 390.55 29.31
  L 390.50 36.57
  A 0.52 0.50 0.0 0 0 391.02 37.07
  L 403.00 37.01
  A 0.57 0.56 80.3 0 1 403.55 37.41
  Q 404.22 39.41 401.73 39.18
  Q 395.76 38.65 389.03 38.76
  A 0.51 0.51 88.3 0 1 388.51 38.26
  L 388.31 17.93
  A 0.93 0.92 -90.0 0 1 389.23 17.00
  L 402.43 17.05
  A 0.79 0.71 -8.5 0 1 403.14 17.52
  Q 403.77 19.19 401.83 19.07
  Q 400.75 19.00 400.66 19.00
  Q 395.95 19.00 391.16 19.00
  A 0.66 0.66 -0.1 0 0 390.50 19.66
  L 390.50 26.29
  A 0.56 0.54 0.0 0 0 391.06 26.83
  L 401.19 26.80
  A 0.73 0.67 -8.2 0 1 401.87 27.27
  Q 402.40 28.87 400.25 28.75
  Q 398.32 28.64 391.07 28.80
  A 0.53 0.51 -0.6 0 0 390.55 29.31
  Z"
/>
<path fill="#4e4e4e" d="
  M 421.57 31.74
  L 425.93 37.87
  A 0.73 0.55 49.9 0 1 425.97 38.67
  Q 425.46 39.25 424.64 38.97
  Q 424.15 38.80 423.69 38.18
  Q 421.48 35.19 419.24 32.21
  A 1.01 0.93 -17.9 0 0 418.44 31.84
  L 412.05 32.06
  A 0.53 0.53 0.3 0 0 411.54 32.57
  Q 411.39 36.28 411.50 37.00
  Q 411.93 39.71 409.77 38.89
  A 0.74 0.73 -79.7 0 1 409.30 38.20
  L 409.42 17.69
  A 0.54 0.54 -1.7 0 1 409.93 17.15
  Q 411.82 17.06 417.75 17.25
  Q 423.13 17.42 425.24 21.06
  Q 426.76 23.70 425.94 26.60
  Q 425.07 29.70 421.78 31.12
  A 0.44 0.40 -29.2 0 0 421.57 31.74
  Z
  M 423.35 26.70
  Q 425.23 21.06 419.69 19.31
  Q 418.17 18.83 412.07 19.05
  A 0.53 0.52 -0.6 0 0 411.55 19.57
  L 411.50 29.49
  A 0.51 0.47 88.9 0 0 411.99 30.00
  L 419.70 29.68
  Q 422.39 29.58 423.35 26.70
  Z"
/>
<path fill="#5f5e5e" d="
  M 457.84 35.21
  Q 455.13 38.42 450.25 38.75
  Q 445.34 39.08 440.49 38.81
  A 0.51 0.51 1.2 0 1 440.00 38.30
  L 440.00 17.85
  A 0.83 0.83 -0.3 0 1 440.82 17.02
  Q 444.06 16.98 446.73 17.01
  Q 450.44 17.04 452.58 17.63
  Q 460.60 19.83 460.34 27.92
  Q 460.19 32.43 457.84 35.21
  Z
  M 456.38 33.36
  Q 459.08 29.81 457.77 25.45
  Q 456.05 19.72 449.99 19.42
  Q 447.41 19.30 443.25 19.12
  A 1.03 1.01 -88.9 0 0 442.20 20.15
  L 442.21 35.62
  A 1.26 1.23 87.7 0 0 443.54 36.88
  Q 446.40 36.64 450.00 36.75
  Q 453.72 36.87 456.38 33.36
  Z"
/>
<path fill="#5f5e5e" d="
  M 468.04 36.01
  A 0.92 0.78 -88.3 0 0 468.79 36.94
  Q 474.28 37.17 479.73 36.85
  Q 480.61 36.80 481.04 37.19
  Q 481.70 37.79 481.04 38.58
  A 1.20 0.95 15.7 0 1 480.18 38.94
  L 466.62 39.00
  A 0.87 0.86 89.7 0 1 465.75 38.13
  L 465.75 17.85
  A 0.85 0.85 0.2 0 1 466.60 17.00
  L 479.87 17.00
  A 0.84 0.83 87.4 0 1 480.70 17.76
  Q 480.86 19.46 479.49 19.22
  Q 478.14 18.99 477.99 18.98
  Q 473.46 18.91 468.67 19.27
  A 0.76 0.75 -8.1 0 0 467.99 20.17
  Q 468.54 23.00 468.00 25.77
  A 0.82 0.82 -84.2 0 0 468.80 26.75
  L 478.49 26.75
  A 0.97 0.84 -13.6 0 1 479.28 27.16
  Q 480.28 28.82 478.00 28.80
  Q 474.13 28.75 469.15 28.75
  A 1.06 0.97 -89.1 0 0 468.18 29.78
  L 468.04 36.01
  Z"
/>
<path fill="#555454" d="
  M 492.94 17.94
  Q 494.49 14.60 496.19 18.31
  Q 500.31 27.36 504.40 36.42
  Q 504.45 36.54 505.04 37.67
  Q 506.11 39.72 503.53 38.64
  A 1.35 1.27 87.4 0 1 502.85 37.98
  L 500.89 33.77
  A 0.82 0.76 76.7 0 0 500.18 33.29
  L 488.94 33.17
  A 0.83 0.82 -76.6 0 0 488.20 33.63
  L 485.90 38.23
  A 1.24 1.03 -81.2 0 1 485.21 38.84
  Q 482.89 39.51 483.91 37.77
  Q 484.36 37.01 484.50 36.68
  Q 488.60 27.26 492.94 17.94
  Z
  M 494.07 20.40
  L 489.35 30.78
  A 0.34 0.33 11.9 0 0 489.66 31.25
  L 499.37 31.25
  A 0.33 0.32 77.2 0 0 499.66 30.78
  L 494.85 20.41
  Q 494.45 19.56 494.07 20.40
  Z"
/>
<path fill="#4e4e4e" d="
  M 511.55 30.07
  L 511.45 38.19
  A 0.77 0.75 80.5 0 1 510.97 38.89
  Q 509.04 39.60 509.16 37.49
  Q 509.24 36.12 509.24 36.01
  Q 509.08 26.87 509.48 17.74
  A 0.53 0.52 0.6 0 1 510.00 17.24
  Q 516.48 17.08 522.96 17.18
  Q 523.70 17.19 524.05 17.53
  Q 524.63 18.09 523.90 18.71
  A 1.48 1.03 16.8 0 1 523.01 19.00
  L 512.00 19.00
  A 0.50 0.50 0.0 0 0 511.50 19.50
  L 511.50 27.15
  A 0.54 0.53 90.0 0 0 512.03 27.69
  L 522.00 27.75
  A 0.87 0.68 -7.6 0 1 522.75 28.19
  Q 522.95 28.73 522.62 29.16
  A 1.24 0.77 10.5 0 1 521.75 29.50
  L 512.06 29.55
  A 0.53 0.52 -90.0 0 0 511.55 30.07
  Z"
/>
<path fill="#494948" d="
  M 540.22 19.04
  Q 546.45 14.77 553.75 19.05
  A 1.27 1.19 8.7 0 1 554.33 19.79
  Q 554.94 22.14 552.69 20.81
  Q 547.94 18.01 543.72 19.52
  Q 538.84 21.28 537.76 25.60
  Q 536.81 29.39 539.16 33.04
  Q 543.16 39.28 551.72 35.88
  A 1.06 1.02 -3.4 0 0 552.34 35.21
  Q 553.10 32.65 552.65 29.99
  Q 552.48 29.02 552.69 28.51
  Q 553.15 27.40 554.30 28.24
  A 1.04 0.96 -73.5 0 1 554.70 29.06
  L 554.75 35.04
  A 2.46 2.36 -14.3 0 1 553.40 37.21
  Q 548.01 39.91 542.78 38.16
  Q 536.51 36.06 535.51 29.50
  Q 535.00 26.18 536.31 23.41
  Q 537.48 20.93 540.22 19.04
  Z"
/>
<path fill="#4e4e4e" d="
  M 567.44 18.42
  Q 569.16 14.71 570.86 18.45
  L 579.79 38.04
  A 0.55 0.52 64.9 0 1 579.56 38.75
  Q 577.95 39.53 577.25 37.75
  Q 576.12 34.88 575.22 33.47
  A 0.92 0.91 -16.3 0 0 574.45 33.05
  L 564.08 33.00
  A 1.72 1.69 -76.1 0 0 562.57 33.93
  Q 561.49 36.05 561.07 37.52
  Q 560.49 39.54 558.77 38.86
  A 0.63 0.63 23.5 0 1 558.43 38.01
  L 567.44 18.42
  Z
  M 568.81 19.94
  L 564.17 30.79
  A 0.34 0.33 10.7 0 0 564.49 31.25
  L 573.69 31.20
  A 0.35 0.35 -12.8 0 0 574.00 30.71
  L 569.25 19.93
  Q 569.02 19.43 568.81 19.94
  Z"
/>
<path fill="#494948" d="
  M 587.05 22.92
  Q 585.88 20.93 585.89 23.24
  L 585.95 38.19
  A 0.75 0.74 79.9 0 1 585.47 38.89
  Q 583.54 39.60 583.66 37.49
  Q 583.74 36.12 583.74 36.00
  Q 583.59 27.00 583.98 18.01
  A 1.21 0.72 81.6 0 1 584.34 17.14
  Q 584.77 16.84 585.30 17.08
  Q 585.64 17.23 585.91 17.69
  Q 590.29 25.05 594.92 33.05
  A 0.30 0.30 -45.0 0 0 595.44 33.05
  Q 599.74 25.61 603.57 18.92
  Q 604.16 17.89 604.80 17.40
  Q 606.86 15.83 606.50 19.75
  Q 606.21 22.91 606.43 38.18
  A 0.75 0.69 80.1 0 1 605.98 38.88
  Q 604.15 39.59 604.35 37.97
  Q 604.51 36.59 604.51 36.51
  Q 604.63 29.25 604.27 22.00
  Q 604.25 21.48 603.99 21.92
  L 595.77 35.80
  A 0.69 0.67 -45.1 0 1 594.60 35.82
  L 587.05 22.92
  Z"
/>
<path fill="#555454" d="
  M 616.56 26.70
  L 626.51 26.75
  A 0.93 0.84 -13.0 0 1 627.27 27.17
  Q 628.23 28.85 626.00 28.82
  Q 621.25 28.75 616.50 28.75
  A 0.50 0.50 0.0 0 0 616.00 29.25
  L 616.00 36.26
  A 0.74 0.74 0.4 0 0 616.73 37.00
  Q 622.41 37.04 628.06 37.16
  Q 630.02 37.19 629.01 38.55
  A 1.02 1.00 18.0 0 1 628.20 38.95
  L 614.44 38.83
  A 0.52 0.52 -0.0 0 1 613.92 38.31
  L 613.77 17.92
  A 0.94 0.89 -0.3 0 1 614.71 17.02
  L 627.76 17.02
  A 1.01 0.78 -12.5 0 1 628.55 17.39
  Q 629.12 18.28 628.37 18.87
  Q 627.95 19.20 627.16 19.14
  Q 621.92 18.76 616.69 19.15
  A 0.59 0.54 -1.8 0 0 616.14 19.68
  L 616.03 26.20
  A 0.54 0.49 1.1 0 0 616.56 26.70
  Z"
/>
<path fill="#4e4e4e" d="
  M 633.61 20.62
  Q 634.64 18.14 637.24 17.50
  Q 642.29 16.26 646.98 18.35
  A 1.06 0.94 8.3 0 1 647.56 19.04
  Q 647.82 20.35 646.83 20.34
  Q 646.44 20.34 645.74 19.96
  Q 642.22 18.07 638.56 19.14
  Q 636.43 19.76 635.70 21.31
  Q 634.99 22.82 635.93 24.34
  Q 636.54 25.34 638.16 25.94
  Q 640.65 26.86 643.16 27.72
  Q 646.44 28.84 647.65 30.33
  Q 649.73 32.91 647.82 35.80
  Q 646.47 37.84 643.85 38.56
  Q 638.56 40.00 633.12 36.72
  A 0.75 0.75 23.9 0 1 632.79 35.87
  Q 633.23 34.31 634.31 35.10
  Q 635.23 35.78 635.26 35.80
  Q 639.88 38.36 644.25 36.50
  Q 646.87 35.39 646.51 33.03
  Q 646.25 31.36 644.39 30.37
  Q 642.48 29.35 640.32 28.89
  Q 638.28 28.46 636.44 27.56
  Q 634.29 26.50 633.57 24.90
  Q 632.66 22.91 633.61 20.62
  Z"
/>
<path fill="#ffffff" d="
  M 423.35 26.70
  Q 422.39 29.58 419.70 29.68
  L 411.99 30.00
  A 0.51 0.47 88.9 0 1 411.50 29.49
  L 411.55 19.57
  A 0.53 0.52 -0.6 0 1 412.07 19.05
  Q 418.17 18.83 419.69 19.31
  Q 425.23 21.06 423.35 26.70
  Z"
/>
<path fill="#ffffff" d="
  M 456.38 33.36
  Q 453.72 36.87 450.00 36.75
  Q 446.40 36.64 443.54 36.88
  A 1.26 1.23 87.7 0 1 442.21 35.62
  L 442.20 20.15
  A 1.03 1.01 -88.9 0 1 443.25 19.12
  Q 447.41 19.30 449.99 19.42
  Q 456.05 19.72 457.77 25.45
  Q 459.08 29.81 456.38 33.36
  Z"
/>
<path fill="#ffffff" d="
  M 568.81 19.94
  Q 569.02 19.43 569.25 19.93
  L 574.00 30.71
  A 0.35 0.35 -12.8 0 1 573.69 31.20
  L 564.49 31.25
  A 0.34 0.33 10.7 0 1 564.17 30.79
  L 568.81 19.94
  Z"
/>
<path fill="#ffffff" d="
  M 494.07 20.40
  Q 494.45 19.56 494.85 20.41
  L 499.66 30.78
  A 0.33 0.32 77.2 0 1 499.37 31.25
  L 489.66 31.25
  A 0.34 0.33 11.9 0 1 489.35 30.78
  L 494.07 20.40
  Z"
/>
<path fill="#5cb137" d="
  M 63.75 44.04
  L 65.97 43.22
  A 1.42 1.19 41.9 0 1 66.90 43.25
  Q 69.99 44.41 69.18 42.24
  Q 68.94 41.58 68.28 40.74
  Q 62.13 32.88 53.31 29.69
  Q 43.54 26.16 33.31 29.79
  Q 32.89 29.94 32.16 30.06
  Q 30.56 30.31 31.64 31.42
  A 1.66 0.92 -4.3 0 0 32.49 31.81
  Q 34.19 32.10 34.31 33.69
  A 0.58 0.52 88.6 0 0 34.81 34.22
  L 36.75 34.29
  Q 30.81 35.95 26.36 40.15
  A 0.52 0.49 -43.4 0 1 25.64 40.15
  L 19.74 33.79
  A 0.93 0.88 -41.3 0 1 19.86 32.48
  Q 31.55 22.68 45.40 23.63
  Q 55.65 24.34 63.93 30.36
  Q 75.53 38.79 78.02 54.65
  A 0.52 0.52 -4.7 0 1 77.51 55.25
  L 68.65 55.25
  A 0.73 0.71 83.4 0 1 67.95 54.68
  Q 66.62 48.54 63.75 44.04
  Z"
/>
<path fill="#44a634" d="
  M 63.75 44.04
  Q 53.54 30.77 36.75 34.29
  L 34.81 34.22
  A 0.58 0.52 88.6 0 1 34.31 33.69
  Q 34.19 32.10 32.49 31.81
  A 1.66 0.92 -4.3 0 1 31.64 31.42
  Q 30.56 30.31 32.16 30.06
  Q 32.89 29.94 33.31 29.79
  Q 43.54 26.16 53.31 29.69
  Q 62.13 32.88 68.28 40.74
  Q 68.94 41.58 69.18 42.24
  Q 69.99 44.41 66.90 43.25
  A 1.42 1.19 41.9 0 0 65.97 43.22
  L 63.75 44.04
  Z"
/>
<path fill="#56ad37" d="
  M 29.02 46.76
  Q 39.02 35.89 51.19 41.67
  Q 55.42 43.68 57.93 46.92
  Q 60.65 50.42 61.59 54.95
  A 0.41 0.41 83.8 0 1 61.19 55.45
  L 53.18 55.49
  A 0.84 0.81 75.4 0 1 52.43 55.03
  Q 50.67 51.64 47.81 49.97
  Q 44.84 48.24 41.46 48.94
  Q 36.73 49.91 34.33 55.12
  A 0.67 0.65 -77.0 0 1 33.74 55.50
  L 25.61 55.50
  A 0.48 0.48 -84.5 0 1 25.14 54.93
  Q 26.14 49.89 29.02 46.76
  Z"
/>
<rect fill="#56ad37" x="-3.17" y="-14.99" transform="translate(558.54,74.51) rotate(0.1)" width="6.34" height="29.98" rx="0.27"/>
<path fill="#e02424" d="
  M 46.07 82.12
  Q 50.89 81.62 55.32 79.31
  A 0.59 0.58 -13.4 0 1 56.18 79.83
  L 55.97 89.29
  A 1.14 1.13 -6.8 0 1 55.12 90.36
  Q 42.45 93.82 31.66 89.96
  Q 22.65 86.74 16.61 79.14
  Q 10.59 71.57 9.13 61.31
  A 0.50 0.49 82.5 0 1 9.55 60.75
  Q 14.05 60.18 18.56 60.64
  A 0.69 0.68 85.9 0 1 19.17 61.18
  Q 22.63 76.58 36.68 81.06
  Q 41.52 82.60 46.07 82.12
  Z
  M 25.81 81.47
  Q 32.54 86.61 41.14 87.51
  Q 43.99 87.81 42.10 85.66
  Q 40.74 84.12 38.06 83.44
  Q 29.34 81.22 23.34 74.62
  A 1.13 0.98 -20.7 0 0 22.50 74.31
  Q 21.23 74.39 20.17 73.78
  A 1.05 0.52 35.8 0 0 19.27 73.63
  Q 18.92 73.86 19.31 74.44
  Q 22.28 78.77 25.81 81.47
  Z"
/>
<path fill="#ea5b1d" d="
  M 34.75 62.21
  Q 33.53 63.34 32.11 62.80
  Q 31.06 62.41 30.83 62.38
  Q 29.11 62.19 29.81 63.69
  Q 31.95 68.23 36.33 70.33
  Q 40.32 72.24 45.02 71.76
  Q 52.16 71.04 56.44 64.59
  Q 56.97 63.80 56.01 63.75
  L 50.71 63.50
  L 52.34 61.00
  A 0.98 0.76 -69.6 0 1 53.06 60.55
  L 60.93 60.51
  A 0.70 0.70 -81.7 0 1 61.60 61.42
  Q 58.66 70.96 51.06 74.52
  Q 43.62 78.01 35.88 74.73
  Q 27.64 71.25 24.94 61.29
  A 0.45 0.44 -11.5 0 1 25.31 60.74
  Q 28.27 60.33 31.27 60.46
  Q 31.39 60.47 32.73 60.39
  Q 34.50 60.28 34.75 62.21
  Z"
/>
<path fill="#2b4797" d="
  M 267.5200 72.0921
  A 12.64 11.75 0.1 0 1 254.8595 83.8200
  A 12.64 11.75 0.1 0 1 242.2400 72.0479
  A 12.64 11.75 0.1 0 1 254.9005 60.3200
  A 12.64 11.75 0.1 0 1 267.5200 72.0921
  Z
  M 254.8609 77.6399
  A 5.56 4.94 90.3 0 0 259.8299 72.1059
  A 5.56 4.94 90.3 0 0 254.9191 66.5201
  A 5.56 4.94 90.3 0 0 249.9501 72.0541
  A 5.56 4.94 90.3 0 0 254.8609 77.6399
  Z"
/>
<path fill="#2b4797" d="
  M 285.18 76.70
  L 285.39 72.18
  A 0.58 0.55 -89.4 0 1 285.93 71.62
  L 290.96 71.56
  A 0.82 0.78 89.7 0 1 291.75 72.38
  L 291.70 80.44
  A 0.87 0.86 75.0 0 1 291.27 81.19
  Q 286.50 83.97 281.24 83.66
  Q 276.84 83.40 273.76 80.98
  Q 270.14 78.14 269.67 73.48
  Q 269.21 68.97 271.57 65.54
  Q 274.08 61.88 279.01 60.81
  Q 285.73 59.36 291.66 63.90
  A 0.82 0.78 42.8 0 1 291.74 65.14
  L 287.98 68.40
  A 0.61 0.55 45.6 0 1 287.21 68.35
  Q 284.54 65.88 281.25 66.50
  Q 279.03 66.92 277.98 68.80
  Q 277.15 70.26 277.29 72.45
  Q 277.69 78.64 284.70 77.29
  A 0.63 0.59 86.1 0 0 285.18 76.70
  Z"
/>
<path fill="#2b4797" d="
  M 428.94 63.94
  Q 431.39 60.60 436.24 60.36
  Q 441.13 60.12 445.55 62.05
  A 0.60 0.50 22.6 0 1 445.91 62.73
  L 444.09 67.28
  A 0.58 0.45 24.1 0 1 443.36 67.46
  Q 440.33 66.02 437.00 66.19
  Q 436.14 66.24 435.58 66.57
  Q 434.16 67.41 435.79 68.46
  Q 437.18 69.37 438.83 69.47
  Q 441.95 69.67 444.22 71.14
  Q 446.58 72.66 447.08 75.23
  Q 447.64 78.12 445.56 80.56
  Q 443.78 82.65 441.03 83.26
  Q 439.17 83.66 435.97 83.68
  Q 431.83 83.69 428.01 81.90
  A 0.75 0.71 15.5 0 1 427.58 81.19
  Q 427.73 79.32 429.44 76.84
  A 1.01 1.00 29.9 0 1 430.69 76.51
  Q 434.48 78.31 438.26 77.86
  Q 439.11 77.76 439.55 77.23
  Q 440.49 76.10 438.44 75.56
  Q 435.20 74.70 433.06 74.02
  Q 429.82 72.97 428.45 71.11
  Q 426.05 67.86 428.94 63.94
  Z"
/>
<path fill="#2b4797" d="
  M 497.6900 72.0480
  A 12.62 11.75 -0.1 0 1 485.0905 83.8200
  A 12.62 11.75 -0.1 0 1 472.4500 72.0920
  A 12.62 11.75 -0.1 0 1 485.0495 60.3200
  A 12.62 11.75 -0.1 0 1 497.6900 72.0480
  Z
  M 485.1290 77.6099
  A 5.54 4.94 89.7 0 0 490.0399 72.0441
  A 5.54 4.94 89.7 0 0 485.0710 66.5301
  A 5.54 4.94 89.7 0 0 480.1601 72.0959
  A 5.54 4.94 89.7 0 0 485.1290 77.6099
  Z"
/>
<path fill="#56ad37" d="
  M 585.57 77.46
  L 591.58 77.50
  A 0.65 0.63 0.0 0 1 592.23 78.13
  L 592.21 82.68
  A 0.53 0.52 -0.0 0 1 591.68 83.20
  L 574.82 83.20
  A 0.56 0.49 1.0 0 1 574.26 82.69
  L 574.41 78.99
  A 1.40 0.83 -30.6 0 1 574.87 78.15
  Q 578.48 74.75 582.17 71.43
  Q 583.51 70.23 583.95 68.66
  A 1.63 1.63 12.6 0 0 582.64 66.60
  Q 580.16 66.21 579.27 67.72
  A 1.02 0.98 29.0 0 1 577.95 68.07
  L 573.78 65.90
  A 0.85 0.83 34.9 0 1 573.53 64.60
  Q 578.33 59.31 584.84 60.62
  Q 588.25 61.30 590.11 63.42
  Q 592.55 66.20 591.08 70.02
  Q 590.47 71.61 588.49 73.70
  Q 586.92 75.36 585.40 77.06
  Q 585.05 77.45 585.57 77.46
  Z"
/>
<path fill="#56ad37" d="
  M 603.7988 83.8399
  A 11.79 10.23 90.2 0 1 593.6101 72.0143
  A 11.79 10.23 90.2 0 1 603.8812 60.2601
  A 11.79 10.23 90.2 0 1 614.0699 72.0857
  A 11.79 10.23 90.2 0 1 603.7988 83.8399
  Z
  M 603.8700 77.7900
  A 5.74 2.55 90.0 0 0 606.4200 72.0500
  A 5.74 2.55 90.0 0 0 603.8700 66.3100
  A 5.74 2.55 90.0 0 0 601.3200 72.0500
  A 5.74 2.55 90.0 0 0 603.8700 77.7900
  Z"
/>
<path fill="#56ad37" d="
  M 627.31 77.43
  L 633.32 77.65
  A 0.54 0.52 -88.9 0 1 633.82 78.19
  L 633.82 82.57
  A 0.69 0.68 -0.0 0 1 633.13 83.25
  L 616.56 83.19
  A 0.55 0.48 1.0 0 1 616.01 82.69
  L 616.16 78.99
  A 1.36 0.83 -29.9 0 1 616.62 78.16
  Q 619.92 75.06 623.31 72.07
  Q 624.99 70.59 625.65 68.79
  Q 626.35 66.85 624.30 66.57
  Q 621.97 66.26 620.86 67.79
  A 0.97 0.91 31.2 0 1 619.66 68.05
  L 615.74 65.99
  A 1.00 0.97 35.4 0 1 615.45 64.43
  Q 621.02 58.69 627.96 60.99
  Q 631.59 62.19 632.81 64.95
  Q 634.30 68.32 631.53 72.07
  Q 629.79 74.41 627.06 76.75
  Q 626.29 77.40 627.31 77.43
  Z"
/>
<path fill="#2b4797" d="
  M 95.61 72.29
  Q 96.19 74.27 96.81 72.33
  L 100.34 61.25
  A 0.70 0.70 -81.6 0 1 101.01 60.75
  L 106.95 60.80
  A 0.46 0.44 -80.7 0 1 107.36 61.39
  L 100.59 82.72
  A 0.70 0.68 -80.5 0 1 99.94 83.20
  L 93.29 83.24
  A 1.35 1.35 81.6 0 1 92.00 82.28
  L 89.14 72.73
  Q 88.58 70.85 88.00 72.73
  L 84.98 82.58
  A 0.77 0.66 -80.0 0 1 84.32 83.12
  L 77.19 83.12
  A 0.75 0.67 80.7 0 1 76.53 82.59
  L 69.83 61.41
  A 0.40 0.38 81.1 0 1 70.19 60.89
  L 76.67 60.79
  A 0.74 0.70 81.1 0 1 77.35 61.31
  L 80.51 71.75
  Q 81.15 73.88 81.81 71.80
  L 85.03 61.67
  A 1.33 1.23 -80.1 0 1 86.24 60.75
  L 91.69 60.79
  A 0.70 0.69 -7.2 0 1 92.35 61.29
  L 95.61 72.29
  Z"
/>
<path fill="#2b4797" d="
  M 117.09 67.00
  Q 116.64 68.09 117.39 68.92
  A 1.26 0.93 -15.4 0 0 118.25 69.25
  L 126.12 69.25
  A 0.50 0.48 -89.4 0 1 126.60 69.76
  L 126.52 73.93
  A 0.58 0.55 -89.5 0 1 125.97 74.50
  Q 122.37 74.50 119.00 74.45
  Q 116.15 74.40 117.12 76.98
  A 0.81 0.68 -7.2 0 0 117.82 77.43
  L 127.69 77.77
  A 0.59 0.54 0.6 0 1 128.26 78.30
  L 128.36 82.56
  A 0.56 0.51 -0.5 0 1 127.80 83.08
  L 110.27 83.24
  A 0.53 0.52 -90.0 0 1 109.75 82.71
  L 109.75 61.31
  A 0.56 0.56 0.0 0 1 110.31 60.75
  L 127.25 60.75
  A 0.72 0.72 6.9 0 1 127.95 61.64
  Q 127.47 63.62 127.95 65.61
  A 0.73 0.72 -6.9 0 1 127.24 66.50
  L 117.82 66.55
  A 0.84 0.71 8.8 0 0 117.09 67.00
  Z"
/>
<path fill="#2b4797" d="
  M 155.69 79.54
  L 148.30 79.55
  A 0.99 0.97 17.3 0 0 147.50 79.96
  Q 146.82 80.94 146.70 82.10
  A 1.28 1.28 -87.0 0 1 145.43 83.25
  L 138.95 83.25
  A 0.34 0.34 -78.5 0 1 138.64 82.78
  L 147.60 62.31
  A 2.35 1.91 -75.4 0 1 149.52 60.90
  L 155.20 60.96
  A 0.93 0.70 75.4 0 1 155.90 61.52
  L 165.19 82.75
  A 0.35 0.35 78.5 0 1 164.87 83.24
  L 158.31 83.20
  A 0.82 0.71 75.9 0 1 157.63 82.72
  L 156.42 80.01
  A 0.80 0.79 -11.9 0 0 155.69 79.54
  Z
  M 151.90 73.97
  Q 152.61 74.16 153.30 73.94
  A 0.55 0.52 -18.3 0 0 153.66 73.27
  L 152.21 68.98
  Q 152.01 68.37 151.76 68.98
  L 150.14 73.03
  A 0.52 0.51 -70.0 0 0 150.45 73.71
  Q 150.69 73.79 150.96 73.82
  Q 151.48 73.86 151.90 73.97
  Z"
/>
<path fill="#2b4797" d="
  M 184.03 76.92
  L 187.87 82.56
  Q 188.34 83.26 187.52 83.25
  L 180.82 83.20
  A 1.04 1.00 70.9 0 1 180.01 82.79
  Q 178.92 81.34 177.91 79.83
  Q 174.21 74.30 174.26 82.47
  A 0.65 0.59 -89.6 0 1 173.66 83.12
  L 167.56 83.03
  A 0.58 0.51 90.0 0 1 167.05 82.45
  L 167.03 61.58
  A 0.80 0.78 -1.5 0 1 167.80 60.79
  Q 174.13 60.60 179.01 60.86
  Q 182.63 61.04 185.01 63.19
  Q 187.33 65.27 187.69 68.53
  Q 188.20 73.08 184.15 76.20
  A 0.54 0.53 -36.1 0 0 184.03 76.92
  Z
  M 177.89 66.85
  Q 176.87 66.70 175.40 66.89
  A 0.72 0.72 2.8 0 0 174.78 67.45
  Q 173.52 73.31 177.80 71.92
  Q 181.45 70.74 179.82 68.16
  Q 179.10 67.02 177.89 66.85
  Z"
/>
<path fill="#2b4797" d="
  M 198.82 77.45
  L 208.73 77.50
  A 0.75 0.72 0.4 0 1 209.48 78.23
  L 209.46 82.69
  A 0.52 0.50 -0.0 0 1 208.94 83.19
  L 191.30 83.25
  A 0.56 0.55 90.0 0 1 190.75 82.69
  L 190.75 61.42
  A 0.67 0.67 -90.0 0 1 191.42 60.75
  L 208.37 60.75
  A 0.62 0.62 89.5 0 1 208.99 61.36
  L 209.05 65.81
  A 0.52 0.51 88.9 0 1 208.55 66.34
  L 199.05 66.57
  A 0.81 0.68 8.4 0 0 198.34 67.01
  Q 197.96 67.97 198.47 68.85
  A 0.95 0.78 -12.1 0 0 199.25 69.25
  L 207.10 69.25
  A 0.64 0.62 0.4 0 1 207.74 69.88
  L 207.71 73.94
  A 0.51 0.50 -0.0 0 1 207.20 74.44
  L 199.31 74.56
  A 0.93 0.82 13.1 0 0 198.53 74.98
  Q 198.02 75.88 198.20 76.96
  A 0.64 0.58 -4.2 0 0 198.82 77.45
  Z"
/>
<path fill="#2b4797" d="
  M 220.59 66.06
  L 220.64 61.23
  A 0.61 0.49 0.5 0 1 221.25 60.75
  L 240.54 60.75
  A 0.57 0.55 -89.5 0 1 241.09 61.33
  L 241.01 66.15
  A 0.51 0.46 -0.1 0 1 240.51 66.60
  L 236.99 66.65
  Q 236.33 66.66 236.03 66.58
  Q 234.50 66.16 234.50 68.25
  Q 234.50 75.25 234.50 82.72
  A 0.52 0.50 -89.5 0 1 233.99 83.24
  L 227.31 83.20
  A 0.51 0.47 90.0 0 1 226.84 82.69
  L 226.84 67.19
  A 0.54 0.50 0.6 0 0 226.31 66.69
  L 221.19 66.59
  A 0.62 0.52 1.6 0 1 220.59 66.06
  Z"
/>
<path fill="#2b4797" d="
  M 303.06 77.44
  L 313.07 77.66
  A 0.58 0.54 0.1 0 1 313.63 78.18
  L 313.73 82.70
  A 0.55 0.48 -0.5 0 1 313.18 83.19
  L 295.56 83.20
  A 0.51 0.51 -89.6 0 1 295.05 82.69
  L 295.17 61.44
  A 0.52 0.51 90.0 0 1 295.68 60.92
  L 312.69 60.80
  A 0.51 0.51 -0.6 0 1 313.21 61.31
  L 313.23 65.87
  A 0.65 0.63 0.0 0 1 312.58 66.50
  L 303.05 66.55
  A 0.55 0.51 -0.6 0 0 302.51 67.06
  L 302.51 68.69
  A 0.55 0.52 -0.5 0 0 303.06 69.20
  L 311.32 69.24
  A 0.68 0.65 0.9 0 1 311.99 69.90
  L 311.96 73.94
  A 0.53 0.50 0.0 0 1 311.43 74.44
  L 303.31 74.56
  A 0.71 0.67 7.6 0 0 302.64 75.04
  Q 302.35 75.97 302.48 76.96
  A 0.62 0.55 -2.1 0 0 303.06 77.44
  Z"
/>
<path fill="#2b4797" d="
  M 329.06 67.31
  L 329.18 82.69
  A 0.51 0.49 -90.0 0 1 328.69 83.20
  L 322.01 83.25
  A 0.52 0.51 -90.0 0 1 321.50 82.73
  L 321.50 67.36
  A 0.98 0.91 0.6 0 0 320.54 66.45
  L 315.67 66.38
  A 0.57 0.56 0.5 0 1 315.11 65.82
  L 315.11 61.43
  A 0.58 0.51 -0.0 0 1 315.69 60.92
  L 334.94 60.80
  A 0.56 0.49 1.0 0 1 335.50 61.31
  L 335.29 66.21
  A 0.64 0.46 -0.3 0 1 334.68 66.66
  L 329.56 66.76
  A 0.54 0.51 88.9 0 0 329.06 67.31
  Z"
/>
<path fill="#2b4797" d="
  M 351.68 74.86
  L 345.83 74.99
  A 0.60 0.55 -1.1 0 0 345.25 75.54
  L 345.25 82.73
  A 0.52 0.52 -90.0 0 1 344.73 83.25
  L 338.25 83.25
  A 0.50 0.50 0.0 0 1 337.75 82.75
  L 337.75 61.41
  A 0.66 0.66 -0.2 0 1 338.41 60.75
  L 344.67 60.75
  A 0.64 0.61 89.5 0 1 345.28 61.38
  L 345.39 68.07
  A 0.56 0.56 -0.1 0 0 345.94 68.62
  L 351.56 68.69
  A 0.82 0.72 -89.3 0 0 352.29 67.88
  L 352.39 61.44
  A 0.57 0.55 -89.5 0 1 352.94 60.88
  L 358.74 60.82
  A 1.09 1.01 89.5 0 1 359.76 61.90
  L 359.82 82.73
  A 0.52 0.51 90.0 0 1 359.31 83.25
  L 352.75 83.25
  A 0.50 0.50 0.0 0 1 352.25 82.75
  L 352.20 75.31
  A 0.51 0.45 -0.6 0 0 351.68 74.86
  Z"
/>
<path fill="#2b4797" d="
  M 370.72 75.05
  Q 370.60 76.03 370.89 76.97
  A 0.74 0.66 -6.5 0 0 371.55 77.44
  L 381.70 77.72
  A 0.69 0.63 -87.8 0 1 382.31 78.44
  L 382.16 82.69
  A 0.52 0.48 -88.8 0 1 381.68 83.19
  L 364.06 83.20
  A 0.50 0.50 0.0 0 1 363.56 82.70
  L 363.50 61.25
  A 0.50 0.50 0.0 0 1 364.00 60.75
  L 381.12 60.75
  A 0.63 0.63 -89.6 0 1 381.75 61.38
  L 381.75 65.63
  A 0.87 0.87 0.0 0 1 380.88 66.50
  Q 376.38 66.50 372.50 66.38
  Q 369.86 66.30 370.96 68.63
  A 0.83 0.82 77.8 0 0 371.69 69.11
  L 379.49 69.19
  A 0.96 0.88 0.3 0 1 380.44 70.07
  L 380.47 73.94
  A 0.53 0.50 0.0 0 1 379.94 74.44
  L 371.32 74.56
  A 0.61 0.57 3.8 0 0 370.72 75.05
  Z"
/>
<path fill="#2b4797" d="
  M 394.47 77.64
  Q 392.50 77.01 392.57 78.73
  Q 392.63 80.28 392.62 80.41
  Q 392.55 81.48 392.55 82.56
  A 0.55 0.48 89.4 0 1 392.07 83.12
  L 385.68 83.12
  A 0.57 0.50 -90.0 0 1 385.18 82.55
  L 385.18 61.43
  A 0.54 0.53 -1.7 0 1 385.69 60.90
  Q 390.41 60.56 397.25 61.00
  Q 401.14 61.25 403.53 63.51
  Q 406.00 65.85 405.98 69.21
  Q 405.96 73.05 402.34 76.21
  A 0.57 0.56 -37.7 0 0 402.24 76.95
  L 406.27 82.73
  Q 406.63 83.24 406.01 83.24
  L 399.07 83.20
  A 1.00 0.90 -15.2 0 1 398.27 82.80
  L 395.20 78.25
  A 1.60 1.01 72.2 0 0 394.47 77.64
  Z
  M 398.31 69.95
  Q 398.47 66.29 393.39 66.92
  A 0.64 0.58 -3.9 0 0 392.83 67.50
  L 392.85 71.32
  A 0.54 0.52 86.6 0 0 393.43 71.85
  L 397.17 71.44
  A 1.61 1.26 89.4 0 0 398.31 69.95
  Z"
/>
<path fill="#2b4797" d="
  M 457.01 78.55
  L 457.22 82.36
  A 0.84 0.72 88.1 0 1 456.51 83.25
  L 450.06 83.20
  A 0.51 0.51 -89.6 0 1 449.55 82.69
  L 449.67 61.44
  A 0.55 0.54 -2.3 0 1 450.18 60.90
  Q 455.21 60.53 461.75 61.00
  Q 467.01 61.38 469.25 65.07
  Q 471.09 68.10 470.10 71.63
  Q 469.03 75.45 465.07 76.96
  Q 463.88 77.41 461.35 77.56
  Q 459.44 77.67 457.55 77.98
  A 0.63 0.53 -6.8 0 0 457.01 78.55
  Z
  M 462.56 70.31
  Q 463.55 67.10 460.66 66.77
  Q 459.22 66.61 458.33 66.68
  Q 456.39 66.84 457.09 69.27
  Q 457.23 69.74 457.15 70.25
  Q 456.86 72.32 458.78 71.88
  Q 459.27 71.77 459.74 71.84
  Q 462.00 72.14 462.56 70.31
  Z"
/>
<path fill="#2b4797" d="
  M 509.44 77.61
  Q 508.10 77.70 508.41 81.40
  A 1.69 1.63 87.4 0 1 506.79 83.24
  L 501.27 83.24
  A 0.53 0.52 90.0 0 1 500.75 82.71
  L 500.75 61.43
  A 0.64 0.64 -0.9 0 1 501.37 60.79
  Q 506.70 60.57 511.53 60.92
  Q 516.04 61.24 518.17 62.65
  Q 521.50 64.86 521.60 69.31
  Q 521.65 71.50 520.77 73.04
  Q 519.88 74.61 518.13 75.99
  A 0.81 0.79 -36.6 0 0 517.96 77.07
  L 521.98 82.82
  Q 522.28 83.24 521.77 83.24
  L 514.81 83.20
  A 1.11 1.03 68.9 0 1 513.99 82.80
  Q 512.58 81.09 511.39 79.22
  Q 510.34 77.56 509.44 77.61
  Z
  M 513.93 68.75
  Q 513.70 66.59 510.75 66.67
  Q 509.78 66.70 508.81 66.77
  A 0.60 0.52 -3.8 0 0 508.26 67.32
  L 508.41 71.25
  A 0.73 0.64 5.9 0 0 508.98 71.87
  Q 511.07 72.33 512.63 71.35
  Q 514.11 70.42 513.93 68.75
  Z"
/>
<path fill="#2b4797" d="
  M 536.83 67.31
  L 536.95 82.69
  A 0.51 0.51 89.6 0 1 536.44 83.20
  L 530.02 83.24
  A 0.53 0.52 90.0 0 1 529.50 82.71
  L 529.50 67.09
  A 0.55 0.55 2.2 0 0 528.99 66.54
  Q 526.48 66.34 524.49 66.66
  Q 522.35 67.02 522.75 64.73
  Q 522.95 63.65 522.71 62.57
  Q 522.26 60.50 524.14 60.65
  Q 525.28 60.75 525.37 60.75
  Q 534.07 60.75 542.98 60.75
  A 0.52 0.52 89.9 0 1 543.50 61.27
  L 543.50 66.03
  A 0.54 0.49 -1.2 0 1 542.98 66.52
  L 537.30 66.74
  A 0.57 0.49 89.0 0 0 536.83 67.31
  Z"
/>
<path fill="#56ad37" d="
  M 649.73 70.45
  Q 652.56 71.07 653.26 74.13
  Q 653.81 76.51 652.83 78.78
  Q 651.14 82.70 646.23 83.35
  Q 640.62 84.09 635.47 82.25
  A 0.99 0.98 -67.1 0 1 634.93 80.90
  L 636.66 77.29
  A 1.15 1.13 -65.9 0 1 638.12 76.72
  Q 642.21 78.42 645.48 77.13
  A 0.65 0.64 -15.2 0 0 645.89 76.43
  Q 645.47 73.92 641.73 74.65
  A 0.81 0.80 -11.5 0 1 640.78 74.03
  Q 639.87 69.81 642.34 68.08
  Q 644.58 66.51 641.83 66.49
  L 636.30 66.46
  A 0.53 0.52 90.0 0 1 635.79 65.94
  L 635.69 61.45
  A 0.52 0.49 89.4 0 1 636.18 60.92
  L 651.51 60.74
  A 0.68 0.66 81.9 0 1 652.15 61.23
  Q 653.31 65.36 649.29 68.43
  Q 647.34 69.92 649.73 70.45
  Z"
/>
<path fill="#f28b14" d="
  M 34.75 62.21
  Q 41.89 71.83 50.71 63.50
  L 56.01 63.75
  Q 56.97 63.80 56.44 64.59
  Q 52.16 71.04 45.02 71.76
  Q 40.32 72.24 36.33 70.33
  Q 31.95 68.23 29.81 63.69
  Q 29.11 62.19 30.83 62.38
  Q 31.06 62.41 32.11 62.80
  Q 33.53 63.34 34.75 62.21
  Z"
/>
<ellipse fill="#ffffff" cx="0.00" cy="0.00" transform="translate(254.89,72.08) rotate(90.3)" rx="5.56" ry="4.94"/>
<ellipse fill="#ffffff" cx="0.00" cy="0.00" transform="translate(485.10,72.07) rotate(89.7)" rx="5.54" ry="4.94"/>
<ellipse fill="#ffffff" cx="0.00" cy="0.00" transform="translate(603.87,72.05) rotate(90.0)" rx="5.74" ry="2.55"/>
<path fill="#ffffff" d="
  M 179.82 68.16
  Q 181.45 70.74 177.80 71.92
  Q 173.52 73.31 174.78 67.45
  A 0.72 0.72 2.8 0 1 175.40 66.89
  Q 176.87 66.70 177.89 66.85
  Q 179.10 67.02 179.82 68.16
  Z"
/>
<path fill="#ffffff" d="
  M 398.31 69.95
  A 1.61 1.26 89.4 0 1 397.17 71.44
  L 393.43 71.85
  A 0.54 0.52 86.6 0 1 392.85 71.32
  L 392.83 67.50
  A 0.64 0.58 -3.9 0 1 393.39 66.92
  Q 398.47 66.29 398.31 69.95
  Z"
/>
<path fill="#ffffff" d="
  M 462.56 70.31
  Q 462.00 72.14 459.74 71.84
  Q 459.27 71.77 458.78 71.88
  Q 456.86 72.32 457.15 70.25
  Q 457.23 69.74 457.09 69.27
  Q 456.39 66.84 458.33 66.68
  Q 459.22 66.61 460.66 66.77
  Q 463.55 67.10 462.56 70.31
  Z"
/>
<path fill="#ffffff" d="
  M 512.63 71.35
  Q 511.07 72.33 508.98 71.87
  A 0.73 0.64 5.9 0 1 508.41 71.25
  L 508.26 67.32
  A 0.60 0.52 -3.8 0 1 508.81 66.77
  Q 509.78 66.70 510.75 66.67
  Q 513.70 66.59 513.93 68.75
  Q 514.11 70.42 512.63 71.35
  Z"
/>
<path fill="#ffffff" d="
  M 150.96 73.82
  Q 150.69 73.79 150.45 73.71
  A 0.52 0.51 -70.0 0 1 150.14 73.03
  L 151.76 68.98
  Q 152.01 68.37 152.21 68.98
  L 153.66 73.27
  A 0.55 0.52 -18.3 0 1 153.30 73.94
  Q 152.61 74.16 151.90 73.97
  Q 151.48 73.86 150.96 73.82
  Z"
/>
<path fill="#ea5b1d" d="
  M 25.81 81.47
  Q 22.28 78.77 19.31 74.44
  Q 18.92 73.86 19.27 73.63
  A 1.05 0.52 35.8 0 1 20.17 73.78
  Q 21.23 74.39 22.50 74.31
  A 1.13 0.98 -20.7 0 1 23.34 74.62
  Q 29.34 81.22 38.06 83.44
  Q 40.74 84.12 42.10 85.66
  Q 43.99 87.81 41.14 87.51
  Q 32.54 86.61 25.81 81.47
  Z"
/>
<circle fill="#2b4797" cx="412.10" cy="79.50" r="4.08"/>
</svg>
