<?xml version="1.0" encoding="utf-8"?>
<!-- Generator: Adobe Illustrator 25.4.1, SVG Export Plug-In . SVG Version: 6.00 Build 0)  -->
<svg version="1.1" id="Слой_1" xmlns="http://www.w3.org/2000/svg" xmlns:xlink="http://www.w3.org/1999/xlink" x="0px" y="0px"
	 viewBox="0 0 285 238" style="enable-background:new 0 0 285 238;" xml:space="preserve">
<style type="text/css">
	.st0{fill:#D31016;}
	.st1{fill:#1156BB;}
	.st2{fill:#D9D9D9;}
</style>
<path class="st0" d="M285,0.6v88.5l-115.2,60.2c-1.2-0.2-3.1-0.3-5.8-0.3c-29.3,0-58.6,0-87.8,0c-1.1,0-1.1-0.2-0.2-0.7l161.6-85.7
	c0.3-0.2,0.5-0.4,0.5-0.7c0.3-1.4-0.3-1.7-1.6-1c-54.8,29.1-110,58.3-165.6,87.8c-0.5,0.3-1.1,0.4-1.7,0.4H1.9c-1,0-1.1-0.2-0.2-0.7
	C95.7,99.1,189.6,50,283.5,1c0.1,0,0.2-0.2,0.5-0.4C284.3,0.3,284.7,0.3,285,0.6z"/>
<path class="st1" d="M285,89.1l0,63.1c-9.1,4-9.8,8.8-2.1,14.5c0.2,0.2,0.5,0.2,0.9,0.3c0.5,0,0.9,0.2,1.2,0.7V238H1.4
	c-0.4-0.3-0.3-0.5,0.2-0.8c36.9-19,92.9-48.3,168.1-87.9L285,89.1z M273.7,123.5c0-4-3.2-7.2-7.2-7.2s-7.2,3.2-7.2,7.2
	c0,4,3.2,7.2,7.2,7.2S273.7,127.5,273.7,123.5z M241.4,140.1c0-4-3.3-7.3-7.3-7.3s-7.3,3.3-7.3,7.3l0,0c0,4,3.3,7.3,7.3,7.3h0
	C238.2,147.4,241.4,144.2,241.4,140.1L241.4,140.1z M208.6,157.4c0-4-3.2-7.2-7.2-7.2s-7.2,3.2-7.2,7.2v0c0,4,3.2,7.2,7.2,7.2h0
	C205.3,164.7,208.6,161.4,208.6,157.4z M176,173.9c0-4-3.2-7.2-7.2-7.2h0c-4,0-7.2,3.2-7.2,7.2v0c0,4,3.2,7.2,7.2,7.2
	S176,177.8,176,173.9z M260.2,176.5c0-4-3.2-7.2-7.2-7.2h0c-4,0-7.2,3.2-7.2,7.2v0c0,4,3.2,7.2,7.2,7.2h0
	C256.9,183.8,260.2,180.5,260.2,176.5L260.2,176.5z M143.8,190.5c0-4-3.2-7.2-7.2-7.2s-7.2,3.2-7.2,7.2v0c0,4,3.2,7.2,7.2,7.2
	S143.8,194.5,143.8,190.5z M227.3,193.8c0-4-3.2-7.2-7.2-7.2s-7.2,3.2-7.2,7.2s3.2,7.2,7.2,7.2S227.3,197.8,227.3,193.8L227.3,193.8
	z M111,207.8c0-4-3.3-7.3-7.3-7.3s-7.3,3.3-7.3,7.3c0,4,3.3,7.3,7.3,7.3h0C107.7,215.1,111,211.8,111,207.8
	C111,207.8,111,207.8,111,207.8z M194.8,210.3c0-4-3.2-7.2-7.2-7.2l0,0c-4,0-7.2,3.2-7.2,7.2l0,0c0,4,3.2,7.2,7.2,7.2
	S194.8,214.3,194.8,210.3z M279,212.9c0-4-3.2-7.2-7.2-7.2c-4,0-7.2,3.2-7.2,7.2c0,0,0,0,0,0c0,4,3.2,7.2,7.2,7.2h0
	C275.7,220.2,279,216.9,279,212.9z M78.7,224.4c0-4-3.2-7.2-7.2-7.2l0,0c-4,0-7.2,3.2-7.2,7.2l0,0c0,4,3.2,7.2,7.2,7.2
	S78.7,228.4,78.7,224.4z M162.5,226.9c0-4-3.2-7.2-7.2-7.2l0,0c-4,0-7.2,3.2-7.2,7.2l0,0c0,4,3.2,7.2,7.2,7.2
	S162.5,230.9,162.5,226.9z M246.1,230.2c0-4-3.2-7.2-7.2-7.2s-7.2,3.2-7.2,7.2v0c0,4,3.2,7.2,7.2,7.2S246.1,234.2,246.1,230.2z"/>
<circle class="st2" cx="266.4" cy="123.5" r="7.3"/>
<circle class="st2" cx="234.2" cy="140.1" r="7.3"/>
<circle class="st2" cx="201.4" cy="157.4" r="7.2"/>
<path class="st2" d="M285,152.2l0,15.4c-0.3-0.4-0.7-0.6-1.2-0.7c-0.4,0-0.7-0.1-0.9-0.3C275.2,161,275.9,156.2,285,152.2z"/>
<circle class="st2" cx="168.8" cy="173.9" r="7.2"/>
<circle class="st2" cx="252.9" cy="176.5" r="7.2"/>
<circle class="st2" cx="136.6" cy="190.5" r="7.2"/>
<circle class="st2" cx="220.1" cy="193.8" r="7.2"/>
<circle class="st2" cx="103.7" cy="207.8" r="7.3"/>
<circle class="st2" cx="187.5" cy="210.3" r="7.2"/>
<circle class="st2" cx="271.7" cy="212.9" r="7.2"/>
<circle class="st2" cx="71.5" cy="224.4" r="7.2"/>
<circle class="st2" cx="155.3" cy="226.9" r="7.2"/>
<circle class="st2" cx="238.9" cy="230.2" r="7.2"/>
</svg>
