<?xml version="1.0" encoding="utf-8"?>
<!-- Generator: Adobe Illustrator 25.4.1, SVG Export Plug-In . SVG Version: 6.00 Build 0)  -->
<svg version="1.1" id="Слой_1" xmlns="http://www.w3.org/2000/svg" xmlns:xlink="http://www.w3.org/1999/xlink" x="0px" y="0px"
	 viewBox="0 0 321 210" style="enable-background:new 0 0 321 210;" xml:space="preserve">
<style type="text/css">
	.st0{fill:none;stroke:#88ABDD;stroke-width:2;}
	.st1{fill:none;stroke:#ECECEC;stroke-width:2;}
	.st2{fill:#1156BB;}
	.st3{fill:#D9D9D9;}
	.st4{fill:#FFFFFF;}
</style>
<g>
	<path vector-effect="non-scaling-stroke" class="st0" d="M249.6,0c0.2,0.5,0.1,0.8-0.3,1c-0.5,0.2-0.7,0.3-0.8,0.3
		C166.1,55.3,83.7,109.2,1.4,163.1c0,0-0.2,0.2-0.5,0.5c-0.3,0.2-0.5,0.2-0.8-0.1"/>
	<path vector-effect="non-scaling-stroke" class="st1" d="M145.1,0l4.7,0.5"/>
	<path vector-effect="non-scaling-stroke" class="st0" d="M252.6,0L252,1.1c-0.1,0.3-0.4,0.5-0.6,0.7L0.2,166.2"/>
	<path vector-effect="non-scaling-stroke" class="st0" d="M320.6,0c0.2,0.4,0.1,0.6-0.2,0.8c-0.3,0.1-0.5,0.2-0.5,0.2
		C213.4,70.5,107,140.1,0.6,209.7c-0.1,0.1-0.2,0.1-0.3,0.1c-0.1,0-0.2,0-0.3-0.1"/>
	<path vector-effect="non-scaling-stroke" class="st1" d="M0.5,71.3L0,74.2"/>
</g>
<path class="st2" d="M0,0l143.6,0c-1.1,4.4,0.1,6.3,3.7,5.8c1.3-0.2,2.2-0.7,2.7-1.7c0.6-1.1,0.5-2.3-0.2-3.6l0.3-0.5h35
	c2.6,4.7,5.3,4.7,8,0h56.5c0.2,0.5,0.1,0.8-0.3,1c-0.5,0.2-0.7,0.3-0.8,0.3C166.1,55.3,83.7,109.2,1.4,163.1c0,0-0.2,0.2-0.5,0.5
	c-0.3,0.2-0.5,0.2-0.8-0.1v-13.5c2.4,0.1,3.9-0.7,4.5-2.6c0.4-1.3,0.2-2.5-0.7-3.5c-0.9-1-2.2-1.6-3.7-1.7v-64
	c3.4-2.1,3.6-4.4,0.5-6.9L0,70.7V0z M108.1,4.9c0-2-1.6-3.6-3.6-3.6c-2,0-3.6,1.6-3.6,3.6s1.6,3.6,3.6,3.6
	C106.5,8.5,108.1,6.9,108.1,4.9z M177.3,9.6c0-2-1.6-3.6-3.6-3.6l0,0c-2,0-3.6,1.6-3.6,3.6s1.6,3.6,3.6,3.6
	C175.7,13.3,177.3,11.6,177.3,9.6C177.3,9.6,177.3,9.6,177.3,9.6z M134.8,12.3c0-2-1.6-3.6-3.6-3.6l0,0c-2,0-3.6,1.6-3.6,3.6
	s1.6,3.6,3.6,3.6C133.1,16,134.8,14.3,134.8,12.3C134.8,12.3,134.8,12.3,134.8,12.3z M92.4,15.2c0-2-1.6-3.6-3.6-3.6l0,0
	c-2,0-3.6,1.6-3.6,3.6l0,0c0,2,1.6,3.6,3.6,3.6l0,0C90.8,18.8,92.4,17.2,92.4,15.2C92.4,15.2,92.4,15.2,92.4,15.2z M203.4,16.4
	c0-2-1.6-3.6-3.6-3.6c-2,0-3.6,1.6-3.6,3.6s1.6,3.6,3.6,3.6C201.8,20,203.4,18.4,203.4,16.4z M161.5,19.9c0-2-1.6-3.6-3.6-3.6
	c-2,0-3.6,1.6-3.6,3.6s1.6,3.6,3.6,3.6C159.9,23.5,161.5,21.9,161.5,19.9z M119.3,22.3c0-2-1.6-3.6-3.6-3.6c0,0,0,0,0,0
	c-2,0-3.6,1.6-3.6,3.6s1.6,3.6,3.6,3.6S119.3,24.3,119.3,22.3C119.3,22.3,119.3,22.3,119.3,22.3z M77,25.1c0-2-1.6-3.6-3.6-3.6
	c-2,0-3.6,1.6-3.6,3.6l0,0c0,2,1.6,3.6,3.6,3.6l0,0C75.4,28.7,77,27.1,77,25.1z M188,26.4c0-2-1.6-3.6-3.6-3.6h0
	c-2,0-3.6,1.6-3.6,3.6s1.6,3.6,3.6,3.6C186.4,30,188,28.3,188,26.4C188,26.4,188,26.4,188,26.4z M145.9,29.8c0-2-1.6-3.6-3.6-3.6
	c-2,0-3.6,1.6-3.6,3.6c0,0,0,0,0,0c0,2,1.6,3.6,3.6,3.6l0,0C144.3,33.4,145.9,31.8,145.9,29.8z M103.7,32.6c0-2-1.6-3.6-3.6-3.6h0
	c-2,0-3.6,1.6-3.6,3.6s1.6,3.6,3.6,3.6C102,36.2,103.7,34.6,103.7,32.6C103.7,32.6,103.7,32.6,103.7,32.6z M64.7,34.5
	c0-2-1.6-3.6-3.6-3.6c-2,0-3.6,1.6-3.6,3.6s1.6,3.6,3.6,3.6l0,0C63.1,38.1,64.7,36.5,64.7,34.5z M172.3,36.6c0-2-1.6-3.6-3.6-3.6
	s-3.6,1.6-3.6,3.6v0c0,2,1.6,3.6,3.6,3.6c0,0,0,0,0,0C170.7,40.2,172.3,38.6,172.3,36.6z M130.5,39.7c0-2-1.6-3.6-3.6-3.6
	c-2,0-3.6,1.6-3.6,3.6l0,0c0,2,1.6,3.6,3.6,3.6c0,0,0,0,0,0C128.9,43.3,130.5,41.7,130.5,39.7z M88.2,42.5c0-2-1.6-3.6-3.6-3.6
	c-2,0-3.6,1.6-3.6,3.6v0c0,2,1.6,3.6,3.6,3.6c0,0,0,0,0,0C86.6,46.2,88.2,44.5,88.2,42.5z M49.3,44.4c0-2-1.6-3.6-3.6-3.6l0,0
	c-2,0-3.6,1.6-3.6,3.6l0,0c0,2,1.6,3.6,3.6,3.6S49.3,46.4,49.3,44.4z M156.8,46.5c0-2-1.6-3.6-3.6-3.6l0,0c-2,0-3.6,1.6-3.6,3.6
	s1.6,3.6,3.6,3.6C155.2,50.2,156.8,48.6,156.8,46.5L156.8,46.5z M114.9,50c0-2-1.6-3.6-3.6-3.6s-3.6,1.6-3.6,3.6s1.6,3.6,3.6,3.6
	S114.9,52,114.9,50z M76,51.9c0-2-1.6-3.6-3.6-3.6l0,0c-2,0-3.6,1.6-3.6,3.6c0,2,1.6,3.6,3.6,3.6C74.3,55.5,76,53.9,76,51.9
	C76,51.9,76,51.9,76,51.9z M33.6,54.7c0-2-1.6-3.6-3.6-3.6s-3.6,1.6-3.6,3.6c0,2,1.6,3.6,3.6,3.6h0C32,58.3,33.6,56.7,33.6,54.7z
	 M141.3,56.5c0-2-1.6-3.6-3.6-3.6c-2,0-3.6,1.6-3.6,3.6l0,0c0,2,1.6,3.6,3.6,3.6l0,0C139.7,60.1,141.3,58.5,141.3,56.5z M99.5,60
	c0-2-1.6-3.6-3.6-3.6c-2,0-3.6,1.6-3.6,3.6v0c0,2,1.6,3.6,3.6,3.6l0,0C97.8,63.6,99.5,62,99.5,60z M60.5,61.8c0-2-1.6-3.6-3.6-3.6
	l0,0c-2,0-3.6,1.6-3.6,3.6l0,0c0,2,1.6,3.6,3.6,3.6l0,0C58.9,65.4,60.5,63.8,60.5,61.8L60.5,61.8z M18,64.6c0-2-1.6-3.6-3.6-3.6
	c0,0,0,0,0,0c-2,0-3.6,1.6-3.6,3.6c0,0,0,0,0,0c0,2,1.6,3.6,3.6,3.6S18,66.6,18,64.6z M125.7,66.7c0-2-1.6-3.6-3.6-3.6
	c-2,0-3.6,1.6-3.6,3.6l0,0c0,2,1.6,3.6,3.6,3.6h0C124,70.3,125.7,68.7,125.7,66.7z M87.2,69.3c0-2-1.6-3.6-3.6-3.6s-3.6,1.6-3.6,3.6
	l0,0c0,2,1.6,3.6,3.6,3.6h0C85.6,72.9,87.2,71.3,87.2,69.3L87.2,69.3z M44.8,72.1c0-2-1.6-3.6-3.6-3.6l0,0c-2,0-3.6,1.6-3.6,3.6
	s1.6,3.6,3.6,3.6S44.8,74.1,44.8,72.1L44.8,72.1z M110.2,76.6c0-2-1.6-3.6-3.6-3.6l0,0c-2,0-3.6,1.6-3.6,3.6l0,0
	c0,2,1.6,3.6,3.6,3.6l0,0C108.6,80.2,110.2,78.6,110.2,76.6L110.2,76.6z M71.7,79.2c0-2-1.6-3.6-3.6-3.6s-3.6,1.6-3.6,3.6v0
	c0,2,1.6,3.6,3.6,3.6S71.7,81.2,71.7,79.2z M29.3,81.9c0-2-1.6-3.6-3.6-3.6S22,79.9,22,81.9s1.6,3.6,3.6,3.6c0,0,0,0,0,0
	C27.7,85.6,29.3,84,29.3,81.9C29.3,81.9,29.3,81.9,29.3,81.9z M98,86c0-2-1.6-3.6-3.6-3.6S90.7,84,90.7,86s1.6,3.6,3.6,3.6
	S98,88,98,86L98,86z M56,89.5c0-2-1.6-3.6-3.6-3.6s-3.6,1.6-3.6,3.6s1.6,3.6,3.6,3.6S56,91.5,56,89.5z M13.8,91.9
	c0-2-1.6-3.6-3.6-3.6c0,0,0,0,0,0c-2,0-3.6,1.6-3.6,3.6l0,0c0,2,1.6,3.6,3.6,3.6c0,0,0,0,0,0C12.2,95.5,13.8,93.9,13.8,91.9
	L13.8,91.9z M82.5,96c0-2-1.6-3.6-3.6-3.6S75.3,94,75.3,96l0,0c0,2,1.6,3.6,3.6,3.6l0,0C80.9,99.6,82.5,98,82.5,96z M40.5,99.4
	c0-2-1.6-3.6-3.6-3.6c0,0,0,0,0,0c-2,0-3.6,1.6-3.6,3.6v0c0,2,1.6,3.6,3.6,3.6C38.8,103,40.4,101.4,40.5,99.4z M66.8,106.2
	c0-2-1.6-3.6-3.6-3.6c-2,0-3.6,1.6-3.6,3.6c0,2,1.6,3.6,3.6,3.6l0,0C65.2,109.9,66.8,108.2,66.8,106.2
	C66.8,106.2,66.8,106.2,66.8,106.2z M25,109.3c0-2-1.6-3.6-3.6-3.6s-3.6,1.6-3.6,3.6c0,2,1.6,3.6,3.6,3.6S25,111.3,25,109.3z
	 M51.2,116.1c0-2-1.6-3.6-3.6-3.6c-2,0-3.6,1.6-3.6,3.6c0,2,1.6,3.6,3.6,3.6c0,0,0,0,0,0C49.6,119.7,51.2,118.1,51.2,116.1
	L51.2,116.1z M9.3,119.6c0-2-1.6-3.6-3.6-3.6c0,0,0,0,0,0c-2,0-3.6,1.6-3.6,3.6l0,0c0,2,1.6,3.6,3.6,3.6c0,0,0,0,0,0
	C7.7,123.2,9.3,121.6,9.3,119.6L9.3,119.6z M35.8,126c0-2-1.6-3.6-3.6-3.6h0c-2,0-3.6,1.6-3.6,3.6c0,0,0,0,0,0c0,2,1.6,3.6,3.6,3.6
	S35.8,128,35.8,126z M20.1,136.3c0-2-1.6-3.6-3.6-3.6s-3.6,1.6-3.6,3.6c0,2,1.6,3.6,3.6,3.6S20.1,138.3,20.1,136.3z"/>
<path class="st3" d="M143.6,0l1.5,0l4.7,0.5c0.7,1.3,0.8,2.5,0.2,3.6c-0.5,0.9-1.4,1.5-2.7,1.7C143.7,6.3,142.5,4.4,143.6,0z"/>
<path class="st4" d="M145.1,0h5l-0.3,0.5L145.1,0z"/>
<path class="st3" d="M185.1,0h8C190.3,4.7,187.7,4.7,185.1,0z"/>
<path class="st4" d="M249.6,0h3L252,1.1c-0.1,0.3-0.4,0.5-0.6,0.7L0.2,166.2L0,163.4c0.3,0.3,0.6,0.4,0.8,0.1
	c0.3-0.3,0.5-0.5,0.5-0.5C83.7,109.2,166.1,55.3,248.4,1.3c0.1,0,0.3-0.1,0.8-0.3C249.6,0.8,249.7,0.5,249.6,0z"/>
<path class="st2" d="M252.6,0h68c0.2,0.4,0.1,0.6-0.2,0.8c-0.3,0.1-0.5,0.2-0.5,0.2C213.4,70.5,107,140.1,0.6,209.7
	c-0.1,0.1-0.2,0.1-0.3,0.1c-0.1,0-0.2,0-0.3-0.1l0.2-43.4L251.4,1.8c0.3-0.2,0.5-0.4,0.6-0.7L252.6,0z"/>
<circle class="st3" cx="104.5" cy="4.9" r="3.6"/>
<circle class="st3" cx="173.6" cy="9.6" r="3.6"/>
<circle class="st3" cx="131.1" cy="12.3" r="3.6"/>
<circle class="st3" cx="88.8" cy="15.2" r="3.6"/>
<circle class="st3" cx="199.8" cy="16.4" r="3.6"/>
<circle class="st3" cx="157.9" cy="19.9" r="3.6"/>
<circle class="st3" cx="115.7" cy="22.3" r="3.6"/>
<circle class="st3" cx="73.4" cy="25.1" r="3.6"/>
<circle class="st3" cx="184.4" cy="26.4" r="3.6"/>
<circle class="st3" cx="142.3" cy="29.8" r="3.6"/>
<circle class="st3" cx="100" cy="32.6" r="3.6"/>
<circle class="st3" cx="61.1" cy="34.5" r="3.6"/>
<circle class="st3" cx="168.7" cy="36.6" r="3.6"/>
<circle class="st3" cx="126.9" cy="39.7" r="3.6"/>
<circle class="st3" cx="84.6" cy="42.5" r="3.6"/>
<circle class="st3" cx="45.7" cy="44.4" r="3.6"/>
<circle class="st3" cx="153.1" cy="46.5" r="3.6"/>
<circle class="st3" cx="111.2" cy="50" r="3.6"/>
<circle class="st3" cx="72.3" cy="51.9" r="3.6"/>
<circle class="st3" cx="30" cy="54.7" r="3.6"/>
<circle class="st3" cx="137.7" cy="56.5" r="3.6"/>
<circle class="st3" cx="95.8" cy="60" r="3.6"/>
<circle class="st3" cx="56.9" cy="61.8" r="3.6"/>
<circle class="st3" cx="14.4" cy="64.6" r="3.6"/>
<circle class="st3" cx="122.1" cy="66.7" r="3.6"/>
<circle class="st3" cx="83.6" cy="69.3" r="3.6"/>
<circle class="st3" cx="41.2" cy="72.1" r="3.6"/>
<path class="st4" d="M0,70.7l0.5,0.6L0,74.2V70.7z"/>
<path class="st3" d="M0.5,71.3c3.1,2.5,2.9,4.8-0.5,6.9v-4L0.5,71.3z"/>
<circle class="st3" cx="106.6" cy="76.6" r="3.6"/>
<circle class="st3" cx="68.1" cy="79.2" r="3.6"/>
<circle class="st3" cx="25.6" cy="81.9" r="3.6"/>
<circle class="st3" cx="94.3" cy="86" r="3.6"/>
<circle class="st3" cx="52.4" cy="89.5" r="3.6"/>
<circle class="st3" cx="10.2" cy="91.9" r="3.6"/>
<circle class="st3" cx="78.9" cy="96" r="3.6"/>
<circle class="st3" cx="36.8" cy="99.4" r="3.6"/>
<circle class="st3" cx="63.2" cy="106.2" r="3.6"/>
<circle class="st3" cx="21.4" cy="109.3" r="3.6"/>
<circle class="st3" cx="47.6" cy="116.1" r="3.6"/>
<circle class="st3" cx="5.7" cy="119.6" r="3.6"/>
<circle class="st3" cx="32.2" cy="126" r="3.6"/>
<circle class="st3" cx="16.5" cy="136.3" r="3.6"/>
<path class="st3" d="M0,142.2c1.6,0.1,2.8,0.6,3.7,1.7c0.9,1,1.2,2.2,0.7,3.5c-0.6,1.8-2.1,2.7-4.5,2.6V142.2z"/>
</svg>
